<?xml version="1.0" encoding="utf-8"?>
<!-- Generator: Adobe Illustrator 16.0.4, SVG Export Plug-In . SVG Version: 6.00 Build 0)  -->
<!DOCTYPE svg PUBLIC "-//W3C//DTD SVG 1.1//EN" "http://www.w3.org/Graphics/SVG/1.1/DTD/svg11.dtd">
<svg version="1.1" xmlns="http://www.w3.org/2000/svg" xmlns:xlink="http://www.w3.org/1999/xlink" x="0px" y="0px"
	 width="130.394px" height="85.04px" viewBox="0 0 130.394 85.04" enable-background="new 0 0 130.394 85.04" xml:space="preserve">
<g id="wit">
	<rect fill="#FFFFFF" width="130.394" height="85.04"/>
</g>
<g id="SIDN_LABS_logo">
	<g>
		<path fill="#0D64AB" d="M85.994,34.873h2.436v9.122h4.054v1.953h-6.489V34.873z"/>
		<path fill="#0D64AB" d="M97.442,34.873h2.72l4.053,11.075h-2.648l-0.711-2.203h-4.318l-0.748,2.203h-2.506L97.442,34.873z
			 M100.215,41.79l-0.924-2.846c-0.214-0.658-0.427-1.297-0.552-1.812h-0.035c-0.143,0.498-0.355,1.174-0.569,1.812l-0.96,2.846
			H100.215z"/>
		<path fill="#0D64AB" d="M105.816,34.873h4.212c2.399,0,3.697,1.139,3.697,2.827c0,1.369-0.835,2.205-1.742,2.453v0.035
			c1.19,0.268,2.079,1.104,2.079,2.543c0,2.025-1.529,3.216-3.929,3.216h-4.317V34.873z M109.708,39.39
			c1.102,0,1.563-0.498,1.563-1.352c0-0.765-0.48-1.262-1.547-1.262h-1.476v2.613H109.708z M109.76,44.047
			c1.085,0,1.672-0.499,1.672-1.477c0-0.995-0.552-1.511-1.653-1.511h-1.529v2.988H109.76z"/>
		<path fill="#0D64AB" d="M115.734,45.467v-2.115c0.8,0.373,1.83,0.746,2.897,0.746c1.226,0,1.849-0.424,1.849-1.243
			c0-0.96-0.836-1.065-2.506-1.796c-1.139-0.514-2.223-1.314-2.223-3.164c0-2.15,1.617-3.163,3.857-3.163
			c1.191,0,2.204,0.283,2.773,0.498v2.062c-0.569-0.268-1.582-0.588-2.596-0.588c-1.102,0-1.617,0.41-1.617,1.121
			c0,0.746,0.622,0.977,1.742,1.404c1.439,0.729,3.109,1.049,3.109,3.537c0,2.15-1.688,3.324-3.945,3.324
			C117.689,46.09,116.587,45.842,115.734,45.467z"/>
	</g>
</g>
<g id="Laag_1">
	<g>
		<g>
			<g>
				<path fill="#27B4B3" d="M71.312,45.948C67.96,35.065,61.25,21.873,57.378,14.414c3.605,0.257,6.451,0.656,9.541,1.483
					C66.955,23.274,70.75,35.906,71.312,45.948z"/>
			</g>
			<g>
				<path fill="#0D64AB" d="M7.662,51.956v-4.469c1.522,0.73,3.408,1.455,5.461,1.455c2.186,0,3.145-0.727,3.145-1.92
					c0-1.588-1.423-1.621-4.601-3.012c-2.085-0.893-4.038-2.481-4.038-5.924c0-4.171,3.145-6.09,7.448-6.09
					c2.284,0,4.138,0.496,5.296,0.926v4.369c-1.059-0.496-2.98-1.126-4.899-1.126c-1.887,0-2.747,0.63-2.747,1.722
					c0,1.192,1.125,1.623,3.045,2.317c3.145,1.126,5.893,2.351,5.893,6.587c0,4.203-3.311,6.355-7.613,6.355
					C11.368,53.149,9.315,52.686,7.662,51.956z"/>
			</g>
			<path fill="#0D64AB" d="M57.609,45.926v-9.242c-8.818-5.749-18.313-11.756-25.742-17.104c-2.991,2.721-5.166,7.346-6.133,12.697
				h5.162v13.661c1.481-0.002,3.193-0.004,5.063-0.006V32.277h7.515c7.58,0,10.359,4.966,10.359,10.295
				c0,1.118-0.145,2.266-0.439,3.352C54.812,45.924,56.222,45.924,57.609,45.926z"/>
			<path fill="#E75625" d="M65.988,45.934c-1.219-0.002-2.492-0.004-3.812-0.006v6.971h-4.566v-6.973
				c-1.389-0.002-2.797-0.002-4.215-0.002c-1.025,3.766-3.982,6.975-10.02,6.975h-7.415v-6.965c-1.87,0.002-3.582,0.004-5.063,0.006
				v6.959h-5.162c1.174,7.775,4.248,13.074,11.594,15.506c9.561-6.812,21.482-12.01,30.561-19.416L65.988,45.934z"/>
			<path fill="#E47D36" d="M67.888,48.989c-9.076,7.406-21,12.604-30.561,19.416c2.557,0.934,5.322,1.518,8.463,1.916
				c7.053-6.352,15.963-12.363,22.625-20.482L67.888,48.989z"/>
			<path fill="#642B80" d="M70.751,52.899H70.32l-1.904-3.061c-6.662,8.117-15.572,14.131-22.625,20.48
				c8.408,0.992,16.498,0.896,23.145-1.406C68.304,63.645,69.867,58.733,70.751,52.899z"/>
			<path fill="#34A9CC" d="M73.556,52.899h-2.805c-0.885,5.834-2.447,10.746-1.816,16.016c3.598-1.283,5.867-2.883,7.91-5.75
				C74.855,59.245,74.32,56.18,73.556,52.899z"/>
			<path fill="#FFFFFF" d="M75.849,52.077v0.82h-2.293c0.766,3.281,1.299,6.348,3.289,10.266c1.094-1.539,2.021-3.516,2.686-5.562
				C77.818,55.331,76.822,53.663,75.849,52.077z"/>
			<path fill="#0E8F46" d="M81.587,38.163c-2.463,1.168-3.834,3.263-5.738,5.063v8.85c0.973,1.586,1.969,3.254,3.682,5.521
				C81.406,51.723,81.871,45.311,81.587,38.163z"/>
			<path fill="#FFFFFF" d="M81.392,35.259c-2.428,1.756-3.768,4.366-5.543,6.711v1.257c1.904-1.802,3.275-3.896,5.738-5.063
				C81.541,37.1,81.488,36.288,81.392,35.259z"/>
			<path fill="#E75625" d="M80.667,30.354c-2.211,2.477-3.428,5.662-4.818,8.715v2.899c1.775-2.345,3.115-4.955,5.543-6.71
				C81.232,33.544,80.998,31.904,80.667,30.354z"/>
			<path fill="#1F3560" d="M75.849,39.069c1.391-3.053,2.607-6.238,4.818-8.715c-0.064-0.312-0.043-0.205-0.111-0.512
				c-0.85-3.681-2.1-6.447-4.256-8.783c-1.504,3.201-2.123,7.15-2.615,11.218h2.164v6.386V39.069z"/>
			<path fill="#54B172" d="M73.685,32.277c0.492-4.067,1.111-8.017,2.615-11.218c-0.895-0.972-1.912-1.811-3.074-2.537
				c-1.197,3.773-1.266,8.687-1.264,13.755H73.685z"/>
			<path fill="#1F3560" d="M71.589,32.277c-0.141-5.263-0.229-10.357,0.846-14.224c-0.244-0.135-0.16-0.092-0.408-0.223
				c-1.008,3.909-0.836,9.092-0.623,14.446L71.589,32.277L71.589,32.277z"/>
			<path fill="#54B172" d="M71.279,32.277h0.125c-0.215-5.354-0.387-10.537,0.621-14.446c-0.498-0.261-1.189-0.582-1.734-0.806
				c-1.008,5.911,0.58,14.901,0.988,23.103V32.277z"/>
			<path fill="#0D64AB" d="M71.279,42.737v-2.609c-0.408-8.201-1.996-17.191-0.988-23.103c-1.086-0.447-2.145-0.798-3.371-1.127
				c0.035,7.376,3.83,20.008,4.393,30.049C71.248,45.022,71.279,43.598,71.279,42.737z"/>
			<path fill="#E47D36" d="M71.312,45.948C67.96,35.065,61.25,21.873,57.378,14.414c-2.514-0.178-4.701-0.229-7.211-0.162
				c6.344,7.342,14.797,19.422,20.262,29.958C70.771,44.842,71.083,45.454,71.312,45.948z"/>
			<g>
				<path fill="#642B80" d="M50.167,14.253c-0.357,0.012-0.832,0.027-1.188,0.043c4.264,4.67,9.354,11.18,13.986,17.981h0.104
					l1.377,2.207l0.002,0.001l4.469,7.166c0.004,0.006,0.008,0.012,0.012,0.018l0.562,0.902c0.312,0.513,0.637,1.082,0.938,1.638
					C64.964,33.675,56.511,21.594,50.167,14.253z"/>
				<path fill="#34A9CC" d="M62.968,32.277c-4.635-6.802-9.725-13.312-13.986-17.981c-0.709,0.031-1.061,0.051-1.756,0.102
					c4.619,4.711,10.049,11.158,15.008,17.88L62.968,32.277L62.968,32.277z"/>
			</g>
			<path fill="#0E8F46" d="M62.232,32.277c-4.959-6.722-10.389-13.169-15.008-17.88c-1.395,0.1-2.631,0.234-3.938,0.435
				c5.312,4.778,11.439,11.005,17.1,17.445H62.232z"/>
			<path fill="#FFFFFF" d="M57.609,32.277h2.775c-5.658-6.44-11.785-12.667-17.098-17.445c-2.281,0.351-4.092,0.782-5.993,1.5
				c6.208,4.927,13.483,10.831,20.315,16.79V32.277z"/>
			<path fill="#E75625" d="M57.609,33.122c-6.832-5.959-14.107-11.863-20.315-16.79c-1.356,0.512-2.586,1.132-3.696,1.882
				c7.1,5.295,15.859,11.369,24.012,17.293V33.122L57.609,33.122z"/>
			<path fill="#1F3560" d="M57.609,35.507c-8.152-5.924-16.912-11.998-24.012-17.293c-0.222,0.15-0.148,0.1-0.363,0.254
				c7.172,5.314,16.084,11.384,24.375,17.281V35.507z"/>
			<path fill="#FFFFFF" d="M71.962,32.277c-0.002-5.068,0.066-9.981,1.264-13.755c-0.23-0.146-0.549-0.334-0.791-0.469
				c-1.074,3.866-0.986,8.961-0.846,14.224H71.962z"/>
			<g>
				<path fill="#0D64AB" d="M65.988,45.934l-2.09-3.363c-0.559-0.881-1.207-1.957-1.65-2.84c-0.055-0.111-0.121-0.232-0.17-0.338
					c0.004,0.074,0.004,0.155,0.01,0.231c0.035,0.88,0.09,1.897,0.09,2.78v3.522C63.496,45.93,64.769,45.932,65.988,45.934z"/>
				<path fill="#54B172" d="M57.609,35.749c-8.291-5.896-17.203-11.967-24.377-17.281c-0.435,0.312-0.979,0.757-1.365,1.113
					c7.429,5.348,16.924,11.354,25.742,17.104V35.749z"/>
			</g>
			<g>
				<path fill="#E75625" d="M47.908,45.926c-2.324,0-4.609,0.002-6.783,0.004v2.73h1.754C45.753,48.661,47.22,47.59,47.908,45.926z"
					/>
			</g>
			<g>
				<path fill="#0D64AB" d="M43.078,36.448h-1.953v9.482c2.174-0.002,4.459-0.004,6.783-0.004c0.389-0.943,0.533-2.098,0.533-3.354
					C48.441,39.063,47.412,36.448,43.078,36.448z"/>
			</g>
		</g>
		<path fill="#FFFFFF" d="M57.609,35.507v-2.385v-0.845h2.775h1.848h0.734h0.105l1.371,2.2l0,0l4.477,7.175
			c0.002,0.005,0.008,0.011,0.01,0.017l0.562,0.902c0.312,0.513,0.637,1.082,0.938,1.638c0.342,0.633,0.654,1.244,0.883,1.738
			c-0.064-0.928-0.031-2.35-0.031-3.21v-2.609v-7.851h0.123h0.186h0.373h1.725h2.162v6.386v0.406v2.899v1.258v8.85v0.82h-2.293
			h-2.805H70.32l-1.904-3.061l-0.527-0.85l-1.9-3.055l-2.09-3.363c-0.559-0.881-1.205-1.957-1.648-2.84
			c-0.057-0.111-0.121-0.232-0.17-0.338c0.002,0.074,0.004,0.155,0.01,0.231c0.033,0.88,0.088,1.897,0.088,2.78v3.522v6.971h-4.566
			v-6.973v-9.241v-0.936v-0.238H57.609z"/>
		<g>
			<rect x="25.734" y="32.278" fill="#FFFFFF" width="5.162" height="20.621"/>
		</g>
		<path fill="#FFFFFF" d="M43.476,32.277H35.96v13.657v6.965h7.415c6.036,0,8.993-3.209,10.019-6.975
			c0.297-1.086,0.439-2.234,0.439-3.352C53.833,37.243,51.054,32.277,43.476,32.277z M47.908,45.926
			c-0.688,1.664-2.154,2.734-5.029,2.734h-1.754v-2.73v-9.482h1.953c4.334,0,5.363,2.615,5.363,6.124
			C48.441,43.829,48.296,44.983,47.908,45.926z"/>
	</g>
</g>
</svg>
