<?xml version="1.0" encoding="UTF-8" standalone="no"?>
<!-- Creator: CorelDRAW X7 -->

<svg
   xmlns:dc="http://purl.org/dc/elements/1.1/"
   xmlns:cc="http://creativecommons.org/ns#"
   xmlns:rdf="http://www.w3.org/1999/02/22-rdf-syntax-ns#"
   xmlns:svg="http://www.w3.org/2000/svg"
   xmlns="http://www.w3.org/2000/svg"
   xmlns:xlink="http://www.w3.org/1999/xlink"
   xmlns:sodipodi="http://sodipodi.sourceforge.net/DTD/sodipodi-0.dtd"
   xmlns:inkscape="http://www.inkscape.org/namespaces/inkscape"
   xml:space="preserve"
   width="26.323605cm"
   height="5.7732105cm"
   version="1.1"
   style="clip-rule:evenodd;fill-rule:evenodd;image-rendering:optimizeQuality;shape-rendering:geometricPrecision;text-rendering:geometricPrecision"
   viewBox="0 0 10364 2273.0002"
   id="svg135"
   sodipodi:docname="logo-CONCORDIA1.svg"
   inkscape:version="0.92.3 (2405546, 2018-03-11)"><metadata
   id="metadata139"><rdf:RDF><cc:Work
       rdf:about=""><dc:format>image/svg+xml</dc:format><dc:type
         rdf:resource="http://purl.org/dc/dcmitype/StillImage" /><dc:title></dc:title></cc:Work></rdf:RDF></metadata><sodipodi:namedview
   pagecolor="#ffffff"
   bordercolor="#666666"
   borderopacity="1"
   objecttolerance="10"
   gridtolerance="10"
   guidetolerance="10"
   inkscape:pageopacity="0"
   inkscape:pageshadow="2"
   inkscape:window-width="1920"
   inkscape:window-height="1017"
   id="namedview137"
   showgrid="false"
   fit-margin-top="0"
   fit-margin-left="0"
   fit-margin-right="0"
   fit-margin-bottom="0"
   units="cm"
   inkscape:zoom="0.78808191"
   inkscape:cx="497.45397"
   inkscape:cy="109.05199"
   inkscape:window-x="0"
   inkscape:window-y="30"
   inkscape:window-maximized="1"
   inkscape:current-layer="Layer_x0020_1" />
 <defs
   id="defs34"><style
     type="text/css"
     id="style2">
   <![CDATA[
    .fil0 {fill:none}
    .fil12 {fill:#666666}
    .fil11 {fill:white}
    .fil1 {fill:url(#id2)}
    .fil7 {fill:url(#id3)}
    .fil8 {fill:url(#id4)}
    .fil5 {fill:url(#id5)}
    .fil4 {fill:url(#id6)}
    .fil2 {fill:url(#id7)}
    .fil3 {fill:url(#id8)}
    .fil6 {fill:url(#id9)}
    .fil9 {fill:url(#id10)}
    .fil10 {fill:url(#id11)}
   ]]>
  </style><mask
     id="id0">
  <linearGradient
   id="id1"
   gradientUnits="userSpaceOnUse"
   x1="7267.2598"
   y1="4570.2002"
   x2="7239.9902"
   y2="5094.1699">
   <stop
   offset="0"
   style="stop-opacity:1; stop-color:white"
   id="stop4" />
   <stop
   offset="1"
   style="stop-opacity:0; stop-color:white"
   id="stop6" />
  </linearGradient>
        <rect
   style="fill:url(#id1)"
   x="6617"
   y="4392"
   width="1274"
   height="880"
   id="rect9" />
       </mask><linearGradient
     id="id2"
     gradientUnits="userSpaceOnUse"
     x1="1952.35"
     y1="5942.7402"
     x2="2456.02"
     y2="5007.3501">
   <stop
   offset="0"
   style="stop-opacity:1; stop-color:#002F71"
   id="stop12" />
   <stop
   offset="1"
   style="stop-opacity:1; stop-color:#00A7F5"
   id="stop14" />
  </linearGradient><linearGradient
     id="id3"
     gradientUnits="userSpaceOnUse"
     xlink:href="#id2"
     x1="10503"
     y1="5821.54"
     x2="10869.7"
     y2="5140.6699">
  </linearGradient><linearGradient
     id="id4"
     gradientUnits="userSpaceOnUse"
     xlink:href="#id2"
     x1="11240.7"
     y1="5961.7798"
     x2="11758.4"
     y2="5000.4399">
  </linearGradient><linearGradient
     id="id5"
     gradientUnits="userSpaceOnUse"
     xlink:href="#id2"
     x1="8522.8701"
     y1="5928.0698"
     x2="9004.2197"
     y2="5034.1499">
  </linearGradient><linearGradient
     id="id6"
     gradientUnits="userSpaceOnUse"
     xlink:href="#id2"
     x1="5529.6802"
     y1="5942.7402"
     x2="6033.3501"
     y2="5007.3501">
  </linearGradient><linearGradient
     id="id7"
     gradientUnits="userSpaceOnUse"
     xlink:href="#id2"
     x1="3092.3601"
     y1="5960.04"
     x2="3615.48"
     y2="4988.54">
  </linearGradient><linearGradient
     id="id8"
     gradientUnits="userSpaceOnUse"
     xlink:href="#id2"
     x1="4354.2002"
     y1="5936.0298"
     x2="4844.1099"
     y2="5026.1899">
  </linearGradient><linearGradient
     id="id9"
     gradientUnits="userSpaceOnUse"
     xlink:href="#id2"
     x1="9639.3799"
     y1="5933.4502"
     x2="10126.5"
     y2="5028.7598">
  </linearGradient><radialGradient
     id="id10"
     gradientUnits="userSpaceOnUse"
     gradientTransform="matrix(0.999999,0,0,0.0926858,0,5543)"
     cx="7255.5601"
     cy="6109.3701"
     r="942.909"
     fx="7255.5601"
     fy="6109.3701">
   <stop
   offset="0"
   style="stop-opacity:1; stop-color:#6E6E6E"
   id="stop24" />
   <stop
   offset="1"
   style="stop-opacity:1; stop-color:white"
   id="stop26" />
  </radialGradient><radialGradient
     id="id11"
     gradientUnits="userSpaceOnUse"
     gradientTransform="matrix(0.349191,-1.47436,1.47436,0.34919,-2533,14299)"
     cx="7482.3599"
     cy="5020.6602"
     r="643.138"
     fx="7482.3599"
     fy="5020.6602">
   <stop
   offset="0"
   style="stop-opacity:1; stop-color:#03AFFF"
   id="stop29" />
   <stop
   offset="1"
   style="stop-opacity:1; stop-color:#085496"
   id="stop31" />
  </radialGradient><linearGradient
     inkscape:collect="always"
     xlink:href="#id2"
     id="linearGradient4148"
     gradientUnits="userSpaceOnUse"
     x1="1952.35"
     y1="5942.7402"
     x2="2456.02"
     y2="5007.3501" /></defs>
 <g
   id="Layer_x0020_1"
   transform="translate(-1708,-4375)">
  <metadata
   id="CorelCorpID_0Corel-Layer" />
  <rect
   class="fil0"
   width="13780"
   height="11024"
   id="rect37"
   x="0"
   y="0"
   style="fill:none" />
  <g
   id="_797976400">
   <g
   id="g129">
    <path
   class="fil1"
   d="m 2258,5802 c 116,0 211,-46 285,-138 l 152,156 c -121,135 -262,203 -426,203 -163,0 -297,-52 -403,-155 -105,-103 -158,-233 -158,-390 0,-157 54,-288 161,-393 108,-105 239,-158 395,-158 174,0 319,66 437,199 l -147,166 c -75,-93 -168,-139 -279,-139 -89,0 -165,29 -228,87 -64,58 -95,137 -95,235 0,99 30,178 89,237 60,60 132,90 217,90 z"
   id="path39"
   inkscape:connector-curvature="0"
   style="fill:url(#linearGradient4148)" />
    <path
   class="fil2"
   d="m 3669,5475 c 0,-94 -30,-175 -91,-242 -60,-66 -135,-100 -223,-100 -89,0 -163,34 -224,100 -61,67 -91,148 -91,242 0,95 30,175 91,241 61,66 135,99 224,99 88,0 163,-33 223,-99 61,-66 91,-146 91,-241 z m 81,390 c -108,104 -239,156 -396,156 -157,0 -289,-52 -396,-156 -107,-105 -160,-235 -160,-391 0,-155 53,-285 160,-390 107,-105 239,-157 396,-157 157,0 288,52 396,157 107,105 160,235 160,390 0,156 -53,286 -160,391 z"
   id="path41"
   inkscape:connector-curvature="0"
   style="fill:url(#id7)" />
    <polygon
   class="fil3"
   points="4852,6011 4347,5347 4347,6011 4110,6011 4110,4951 4332,4951 4852,5633 4852,4951 5088,4951 5088,6011 "
   id="polygon43"
   style="fill:url(#id8)" />
    <path
   class="fil4"
   d="m 5835,5802 c 117,0 212,-46 285,-138 l 152,156 c -120,135 -262,203 -425,203 -164,0 -298,-52 -404,-155 -105,-103 -158,-233 -158,-390 0,-157 54,-288 162,-393 107,-105 239,-158 394,-158 174,0 320,66 437,199 l -147,166 c -75,-93 -168,-139 -279,-139 -89,0 -165,29 -228,87 -63,58 -95,137 -95,235 0,99 30,178 90,237 59,60 131,90 216,90 z"
   id="path45"
   inkscape:connector-curvature="0"
   style="fill:url(#id6)" />
    <path
   class="fil5"
   d="m 9160,5303 c 0,170 -67,279 -202,329 l 269,379 h -291 l -235,-338 h -164 v 338 H 8300 V 4951 h 402 c 165,0 282,28 353,84 70,55 105,145 105,268 z m -450,165 c 81,0 136,-13 165,-39 29,-26 44,-68 44,-125 0,-57 -15,-96 -46,-118 -30,-21 -83,-32 -159,-32 h -177 v 314 z"
   id="path47"
   inkscape:connector-curvature="0"
   style="fill:url(#id5)" />
    <path
   class="fil6"
   d="m 9777,4951 c 189,0 334,47 435,139 101,92 151,221 151,386 0,165 -49,295 -147,391 -99,96 -249,144 -451,144 H 9402 V 4951 Z m 12,851 c 108,0 191,-28 249,-82 58,-55 87,-134 87,-238 0,-104 -29,-184 -87,-240 -58,-56 -147,-85 -267,-85 h -132 v 645 z"
   id="path49"
   inkscape:connector-curvature="0"
   style="fill:url(#id9)" />
    <polygon
   class="fil7"
   points="10805,4951 10805,6011 10568,6011 10568,4951 "
   id="polygon51"
   style="fill:url(#id3)" />
    <path
   class="fil8"
   d="m 11820,6011 -98,-229 h -445 l -98,229 h -252 l 458,-1060 h 229 l 458,1060 z m -320,-744 -133,307 h 265 z"
   id="path53"
   inkscape:connector-curvature="0"
   style="fill:url(#id4)" />
    <g
   id="g127">
     <path
   class="fil9"
   d="m 7256,6031 c 466,0 844,35 844,78 0,44 -378,79 -844,79 -467,0 -845,-35 -845,-79 0,-43 378,-78 845,-78 z"
   id="path55"
   inkscape:connector-curvature="0"
   style="fill:url(#id10)" />
     <g
   id="g61">
      <path
   class="fil10"
   d="m 7256,4375 c 481,0 872,391 872,872 0,482 -391,873 -872,873 -482,0 -873,-391 -873,-873 0,-481 391,-872 873,-872 z"
   id="path57"
   inkscape:connector-curvature="0"
   style="fill:url(#id11)" />
      <path
   class="fil11"
   style="fill:#ffffff"
   d="m 7254,4396 c 349,0 633,195 633,436 0,241 -284,436 -633,436 -350,0 -633,-195 -633,-436 0,-241 283,-436 633,-436 z"
   mask="url(#id0)"
   id="path59"
   inkscape:connector-curvature="0" />
     </g>
     <g
   id="g123">
      <path
   class="fil11"
   d="m 7797,5310 c 245,-10 245,-10 331,-22 0,14 0,14 -1,28 -87,20 -87,20 -331,37 -8,27 -30,47 -55,48 -33,2 -59,-27 -58,-66 1,-38 28,-69 61,-70 26,0 46,19 53,45 z m -53,-12 c 16,0 29,15 29,34 -1,20 -14,36 -31,36 -17,1 -30,-14 -29,-34 0,-19 14,-36 31,-36 z"
   id="path63"
   inkscape:connector-curvature="0"
   style="fill:#ffffff" />
      <path
   class="fil11"
   d="m 7954,5453 c 120,-28 120,-28 163,-57 -2,9 -3,18 -5,28 v 0 c -45,34 -45,34 -162,66 -9,23 -26,42 -44,46 -24,5 -41,-18 -37,-52 3,-33 26,-63 50,-66 19,-2 32,13 35,35 z m -38,-6 c 13,-2 21,11 19,28 -2,16 -13,31 -25,34 -13,1 -21,-10 -19,-28 1,-17 13,-32 25,-34 z"
   id="path65"
   inkscape:connector-curvature="0"
   style="fill:#ffffff" />
      <path
   class="fil11"
   d="m 7772,5626 c 228,-56 228,-56 319,-122 -3,9 -6,19 -9,28 v 0 c -92,71 -92,71 -316,130 -10,23 -33,42 -56,46 -31,5 -54,-16 -49,-48 4,-33 33,-63 65,-67 24,-3 42,11 46,33 z m -50,-4 c 16,-2 27,9 25,26 -3,16 -18,31 -33,34 -16,2 -27,-9 -25,-26 2,-17 17,-32 33,-34 z"
   id="path67"
   inkscape:connector-curvature="0"
   style="fill:#ffffff" />
      <path
   class="fil11"
   d="m 7902,5715 c 98,-49 98,-49 148,-103 v 0 c -5,10 -9,19 -14,28 -49,54 -49,54 -143,103 -10,19 -28,36 -45,43 -23,8 -35,-5 -28,-30 7,-27 32,-54 55,-61 17,-5 28,3 27,20 z m -33,3 c 11,-4 17,4 13,17 -4,13 -16,26 -27,30 -12,5 -18,-3 -14,-16 3,-13 16,-27 28,-31 z"
   id="path69"
   inkscape:connector-curvature="0"
   style="fill:#ffffff" />
      <path
   class="fil11"
   d="m 7718,5871 c 175,-68 175,-68 272,-151 v 0 c -6,10 -12,19 -18,28 -97,81 -97,81 -263,147 -11,16 -33,31 -54,37 -27,7 -45,-4 -39,-25 6,-23 34,-47 63,-53 22,-5 37,2 39,17 z m -45,3 c 15,-3 24,3 20,15 -4,11 -18,22 -32,26 -14,3 -23,-3 -20,-14 3,-11 18,-23 32,-27 z"
   id="path71"
   inkscape:connector-curvature="0"
   style="fill:#ffffff" />
      <path
   class="fil11"
   d="m 7821,5897 c 49,-33 49,-33 87,-69 -8,10 -17,20 -26,29 -33,29 -33,29 -74,56 -11,12 -29,26 -44,34 -19,10 -28,8 -18,-7 8,-15 34,-36 54,-46 16,-7 23,-6 21,3 z m -30,12 c 11,-5 15,-3 10,4 -6,8 -18,18 -28,23 -10,5 -14,3 -9,-4 5,-8 17,-18 27,-23 z"
   id="path73"
   inkscape:connector-curvature="0"
   style="fill:#ffffff" />
      <path
   class="fil11"
   d="m 7646,6015 c 81,-36 81,-36 147,-78 v 0 c -13,9 -25,18 -38,27 v 0 c -55,34 -55,34 -119,62 -11,8 -30,17 -48,24 -22,7 -36,7 -29,-2 7,-10 32,-25 57,-32 19,-6 31,-6 30,-1 z m -37,10 c 13,-4 19,-2 15,2 -4,5 -17,12 -28,16 -13,4 -20,4 -16,-1 4,-5 17,-13 29,-17 z"
   id="path75"
   inkscape:connector-curvature="0"
   style="fill:#ffffff" />
      <path
   class="fil11"
   d="m 7613,4450 v 0 c -2,-1 -2,-1 -5,-2 1,1 -9,-2 -26,-9 -23,-8 -47,-18 -54,-22 -2,0 -3,-1 -1,-1 v 0 c 7,3 13,5 20,7 v 0 c -1,0 -1,0 1,1 3,2 16,7 26,11 11,4 16,5 14,4 v 0 c 8,3 17,7 25,11 z"
   id="path77"
   inkscape:connector-curvature="0"
   style="fill:#ffffff" />
      <path
   class="fil11"
   d="m 7793,4558 v 0 c -10,-7 -10,-7 -21,-15 4,4 -3,2 -17,-6 -18,-10 -43,-27 -53,-37 -8,-7 -4,-6 9,2 29,17 56,36 82,56 z m -67,-47 c 9,6 21,14 27,18 5,5 2,4 -7,-1 -9,-6 -22,-14 -27,-19 -5,-4 -2,-3 7,2 z"
   id="path79"
   inkscape:connector-curvature="0"
   style="fill:#ffffff" />
      <path
   class="fil11"
   d="m 7674,4521 c 122,53 122,53 208,117 9,9 18,19 26,28 -90,-70 -91,-70 -225,-128 0,10 -13,14 -34,9 -27,-7 -55,-27 -61,-43 -6,-15 10,-21 35,-14 19,6 40,19 51,31 z m -45,-19 c 13,4 27,13 31,21 3,8 -4,12 -17,8 -14,-3 -28,-13 -31,-21 -4,-8 4,-12 17,-8 z"
   id="path81"
   inkscape:connector-curvature="0"
   style="fill:#ffffff" />
      <path
   class="fil11"
   d="m 7854,4654 c 71,44 71,44 118,93 6,9 12,18 18,27 v 0 c -48,-51 -48,-51 -126,-97 2,13 -7,18 -24,11 -21,-8 -47,-32 -55,-53 -8,-21 2,-29 23,-20 16,8 34,24 46,39 z m -38,-22 c 11,4 23,16 28,26 5,11 0,16 -11,11 -11,-4 -24,-16 -28,-27 -5,-11 1,-15 11,-10 z"
   id="path83"
   inkscape:connector-curvature="0"
   style="fill:#ffffff" />
      <path
   class="fil11"
   d="m 7740,4704 c 199,68 199,68 296,151 5,9 9,18 14,27 v 0 c -96,-79 -96,-79 -302,-147 -3,18 -19,29 -43,25 -31,-5 -59,-32 -65,-61 -5,-27 15,-43 45,-37 22,5 44,22 55,42 z m -50,-20 c 15,3 29,17 32,31 3,14 -6,23 -22,20 -15,-3 -30,-17 -33,-31 -3,-14 7,-23 23,-20 z"
   id="path85"
   inkscape:connector-curvature="0"
   style="fill:#ffffff" />
      <path
   class="fil11"
   d="m 7926,4870 c 108,44 108,44 156,92 v 0 c 3,10 6,19 9,29 -47,-46 -47,-46 -158,-88 -1,19 -13,32 -31,27 -24,-4 -49,-34 -54,-64 -5,-30 10,-49 33,-42 17,5 35,24 45,46 z m -40,-22 c 12,4 24,19 27,33 3,16 -4,26 -16,23 -12,-3 -24,-18 -27,-33 -3,-16 4,-26 16,-23 z"
   id="path87"
   inkscape:connector-curvature="0"
   style="fill:#ffffff" />
      <path
   class="fil11"
   d="m 7785,4980 c 240,42 240,42 327,91 v 0 c 2,9 3,18 5,28 v 0 c -86,-42 -86,-42 -328,-78 -5,25 -25,41 -50,40 -32,-2 -61,-34 -64,-71 -2,-35 22,-61 54,-58 25,3 47,23 56,48 z m -53,-18 c 16,2 30,18 32,36 1,19 -11,32 -27,31 -17,-1 -31,-18 -33,-36 -1,-19 11,-33 28,-31 z"
   id="path89"
   inkscape:connector-curvature="0"
   style="fill:#ffffff" />
      <path
   class="fil11"
   d="m 7962,5151 c 123,14 123,14 165,28 v 0 c 1,9 1,19 1,28 -41,-9 -41,-9 -164,-16 -5,23 -20,40 -38,40 -25,0 -46,-29 -47,-65 -1,-35 18,-61 42,-59 19,2 35,20 41,44 z m -39,-15 c 12,2 22,16 23,34 1,17 -8,32 -21,31 -12,0 -23,-15 -23,-34 -1,-18 9,-31 21,-31 z"
   id="path91"
   inkscape:connector-curvature="0"
   style="fill:#ffffff" />
      <path
   class="fil11"
   d="m 6714,5184 c -245,10 -245,10 -331,22 1,-15 1,-15 2,-29 86,-19 86,-19 330,-36 9,-26 30,-47 55,-48 33,-1 59,28 58,66 -1,38 -28,70 -61,70 -25,0 -46,-19 -53,-45 z m 53,12 c -16,0 -29,-15 -29,-35 1,-19 15,-35 31,-36 17,0 30,15 30,35 -1,19 -15,36 -32,36 z"
   id="path93"
   inkscape:connector-curvature="0"
   style="fill:#ffffff" />
      <path
   class="fil11"
   d="m 6557,5041 c -119,27 -119,27 -163,57 v 0 c 2,-9 4,-19 6,-28 44,-34 44,-34 162,-66 8,-24 25,-43 43,-46 25,-5 41,18 38,51 -3,34 -27,64 -51,67 -18,2 -32,-13 -35,-35 z m 38,6 c -12,1 -20,-11 -19,-27 2,-17 14,-32 26,-34 12,-3 21,10 19,26 -2,18 -14,33 -26,35 z"
   id="path95"
   inkscape:connector-curvature="0"
   style="fill:#ffffff" />
      <path
   class="fil11"
   d="m 6740,4868 c -229,56 -229,56 -320,122 v 0 c 3,-9 6,-19 9,-28 93,-71 93,-71 316,-130 11,-23 33,-42 57,-46 31,-5 53,16 49,48 -4,34 -34,64 -65,67 -25,3 -43,-11 -46,-33 z m 49,4 c -15,2 -26,-9 -24,-26 3,-16 17,-31 33,-34 16,-2 27,10 25,26 -2,17 -17,32 -34,34 z"
   id="path97"
   inkscape:connector-curvature="0"
   style="fill:#ffffff" />
      <path
   class="fil11"
   d="m 6609,4779 c -98,49 -98,49 -147,103 4,-10 8,-19 13,-28 v 0 c 50,-54 50,-54 143,-103 11,-19 29,-37 46,-43 22,-8 35,5 28,30 -7,27 -32,54 -56,61 -17,6 -27,-3 -27,-20 z m 34,-3 c -11,3 -17,-4 -14,-17 5,-13 16,-26 28,-31 11,-4 18,3 14,16 -4,14 -16,28 -28,32 z"
   id="path99"
   inkscape:connector-curvature="0"
   style="fill:#ffffff" />
      <path
   class="fil11"
   d="m 6794,4624 c -175,67 -175,67 -273,150 6,-10 12,-19 19,-28 v 0 c 97,-81 97,-81 262,-147 12,-16 33,-31 55,-37 27,-6 45,5 39,26 -6,22 -35,46 -63,52 -22,5 -37,-2 -39,-16 z m 44,-4 c -14,3 -23,-3 -19,-15 3,-10 18,-22 32,-25 14,-4 23,2 20,13 -4,12 -18,24 -33,27 z"
   id="path101"
   inkscape:connector-curvature="0"
   style="fill:#ffffff" />
      <path
   class="fil11"
   d="m 6692,4597 c -50,33 -50,33 -88,68 8,-9 17,-19 26,-28 32,-29 33,-29 74,-57 11,-11 28,-25 44,-33 19,-10 27,-7 18,7 -9,16 -33,36 -54,45 -16,8 -24,7 -20,-2 z m 28,-12 c -10,5 -14,3 -8,-5 5,-7 17,-17 27,-22 10,-5 14,-4 9,4 -5,8 -18,19 -28,23 z"
   id="path103"
   inkscape:connector-curvature="0"
   style="fill:#ffffff" />
      <path
   class="fil11"
   d="m 6865,4479 c -80,36 -80,36 -146,79 12,-10 25,-19 38,-28 55,-33 55,-33 118,-62 12,-8 30,-17 48,-23 24,-8 37,-7 30,1 -6,11 -32,25 -58,33 -18,6 -30,5 -30,0 z m 37,-10 c -12,4 -18,3 -14,-2 4,-5 17,-12 29,-16 11,-4 19,-3 14,2 -3,5 -17,12 -29,16 z"
   id="path105"
   inkscape:connector-curvature="0"
   style="fill:#ffffff" />
      <path
   class="fil11"
   d="m 6898,6045 c 3,1 3,1 7,3 -2,-2 8,1 26,8 22,7 46,17 53,21 2,1 2,2 1,2 -7,-3 -13,-5 -20,-7 v 0 c 1,0 1,0 0,-1 -4,-2 -16,-7 -28,-11 -10,-4 -15,-5 -13,-4 -9,-4 -17,-7 -26,-11 z"
   id="path107"
   inkscape:connector-curvature="0"
   style="fill:#ffffff" />
      <path
   class="fil11"
   d="m 6719,5937 c 10,8 10,8 21,15 -4,-4 2,-2 16,6 20,10 44,27 53,37 9,7 5,6 -8,-1 v 0 c -29,-18 -56,-36 -82,-57 z m 66,47 c -9,-6 -20,-14 -26,-18 -6,-5 -3,-4 7,1 9,6 21,14 26,19 6,4 2,3 -7,-2 z"
   id="path109"
   inkscape:connector-curvature="0"
   style="fill:#ffffff" />
      <path
   class="fil11"
   d="m 6838,5975 c -122,-54 -122,-54 -209,-118 -8,-9 -17,-18 -25,-28 90,70 90,70 224,128 0,-10 14,-14 35,-8 26,6 54,26 61,42 6,15 -10,21 -35,14 -19,-6 -39,-18 -51,-30 z m 44,18 c -13,-4 -26,-13 -30,-21 -4,-8 4,-12 17,-8 13,3 27,13 32,22 3,8 -5,11 -19,7 z"
   id="path111"
   inkscape:connector-curvature="0"
   style="fill:#ffffff" />
      <path
   class="fil11"
   d="m 6658,5841 c -71,-44 -71,-44 -118,-92 v 0 c -7,-9 -13,-19 -19,-28 49,51 49,51 126,97 -2,-13 7,-18 24,-11 22,8 48,33 56,54 8,19 -2,28 -24,18 -16,-7 -34,-23 -45,-38 z m 37,22 c -10,-4 -22,-16 -27,-26 -5,-11 0,-16 10,-11 12,4 25,17 29,28 4,10 -1,14 -12,9 z"
   id="path113"
   inkscape:connector-curvature="0"
   style="fill:#ffffff" />
      <path
   class="fil11"
   d="m 6772,5791 c -200,-68 -200,-68 -297,-151 v 0 c -5,-9 -9,-18 -13,-27 96,80 96,80 302,147 2,-18 19,-29 42,-25 31,5 60,33 65,61 5,26 -14,43 -44,37 -22,-5 -44,-22 -55,-42 z m 50,20 c -15,-3 -29,-17 -33,-30 -3,-15 7,-24 22,-21 16,3 31,17 33,31 3,14 -7,23 -22,20 z"
   id="path115"
   inkscape:connector-curvature="0"
   style="fill:#ffffff" />
      <path
   class="fil11"
   d="m 6586,5626 c -109,-45 -109,-45 -157,-93 -3,-10 -6,-19 -9,-29 v 0 c 47,46 47,46 159,89 1,-20 12,-33 31,-28 23,4 48,34 53,64 6,31 -9,48 -32,43 -18,-6 -36,-25 -45,-46 z m 39,21 c -12,-4 -23,-18 -27,-33 -2,-15 4,-25 16,-23 12,3 25,18 28,34 3,15 -5,25 -17,22 z"
   id="path117"
   inkscape:connector-curvature="0"
   style="fill:#ffffff" />
      <path
   class="fil11"
   d="m 6726,5515 c -239,-42 -239,-42 -326,-90 -2,-10 -4,-19 -6,-28 v 0 c 0,0 0,0 0,0 86,41 86,41 328,77 6,-25 25,-41 50,-39 33,2 62,33 64,70 3,35 -21,62 -53,58 -25,-3 -47,-23 -57,-48 z m 54,18 c -17,-2 -31,-18 -33,-36 -1,-18 11,-32 27,-31 17,1 32,18 33,36 2,19 -11,32 -27,31 z"
   id="path119"
   inkscape:connector-curvature="0"
   style="fill:#ffffff" />
      <path
   class="fil11"
   d="m 6549,5344 c -123,-13 -123,-13 -165,-27 0,-9 -1,-19 -1,-28 41,8 41,8 164,16 5,-23 20,-41 38,-41 25,0 46,29 47,65 2,35 -18,62 -42,60 -19,-2 -35,-21 -41,-45 z m 39,15 c -12,-1 -22,-16 -23,-34 -1,-17 9,-31 21,-30 12,-1 23,15 24,33 0,18 -9,32 -22,31 z"
   id="path121"
   inkscape:connector-curvature="0"
   style="fill:#ffffff" />
     </g>
     <path
   class="fil11"
   d="m 7364,5274 39,234 h -147 -148 l 39,-234 c -53,-35 -88,-96 -88,-164 0,-109 88,-197 197,-197 108,0 196,88 196,197 0,68 -35,129 -88,164 z"
   id="path125"
   inkscape:connector-curvature="0"
   style="fill:#ffffff" />
    </g>
   </g>
   <path
   class="fil12"
   d="m 2085,6498 c -13,5 -30,7 -48,7 -41,0 -67,-23 -67,-64 0,-36 15,-62 36,-79 14,-10 33,-16 54,-16 22,0 40,5 46,7 l 18,-54 c -8,-5 -30,-11 -59,-11 -36,0 -68,8 -96,25 -42,26 -72,71 -72,136 0,71 50,114 122,114 33,0 57,-5 71,-11 z m 37,-134 39,174 c 0,5 0,7 -2,10 -6,10 -15,20 -28,29 -11,6 -23,11 -32,13 l 15,58 c 13,-1 41,-11 64,-33 26,-23 51,-59 78,-115 l 68,-136 h -71 l -29,76 c -8,21 -12,33 -16,45 v 0 c -2,-12 -4,-25 -6,-44 l -9,-77 z m 246,-86 -38,191 c -3,13 -5,25 -5,38 0,34 22,56 73,56 91,0 132,-71 132,-136 0,-35 -19,-67 -59,-67 -23,0 -43,9 -56,23 h -1 l 22,-105 z m 32,182 c 5,-29 22,-45 38,-45 14,0 21,11 21,27 0,30 -21,71 -46,71 -11,0 -18,-7 -18,-19 -1,-7 1,-14 2,-20 z m 313,39 c -17,8 -35,12 -55,12 -15,0 -27,-4 -35,-10 -4,-3 -6,-9 -7,-13 80,2 125,-17 125,-66 0,-40 -32,-62 -72,-62 -74,0 -116,60 -116,119 0,54 31,84 88,84 19,0 50,-3 76,-15 z m -35,-77 c 0,12 -14,18 -55,17 2,-12 13,-30 37,-30 12,0 18,6 18,12 z m 141,137 12,-67 c 7,-35 20,-66 60,-66 3,0 7,0 9,0 l 13,-66 c -4,0 -7,0 -11,0 -27,0 -49,18 -63,43 h -1 c 1,-13 2,-26 3,-39 h -58 c -2,17 -5,52 -10,83 l -22,112 z m 154,-12 c 13,9 38,15 64,16 56,1 96,-24 96,-71 0,-29 -26,-43 -47,-53 -15,-7 -22,-13 -22,-19 0,-7 9,-11 21,-11 18,0 33,4 41,8 l 16,-47 c -10,-5 -29,-10 -54,-10 -54,0 -92,27 -92,70 0,26 22,42 44,53 17,7 23,13 23,20 0,6 -6,11 -19,11 -20,1 -43,-8 -55,-14 z m 347,-48 c -17,8 -35,12 -55,12 -15,0 -27,-4 -35,-10 -4,-3 -6,-9 -7,-13 80,2 125,-17 125,-66 0,-40 -32,-62 -72,-62 -74,0 -116,60 -116,119 0,54 31,84 88,84 19,0 50,-3 76,-15 z m -35,-77 c 0,12 -14,18 -55,17 2,-12 13,-30 37,-30 12,0 18,6 18,12 z m 223,80 c -10,4 -20,7 -35,7 -17,0 -34,-10 -34,-35 0,-33 22,-61 59,-61 10,0 17,2 23,4 l 16,-51 c -10,-4 -23,-6 -39,-6 -76,0 -130,51 -130,121 0,54 38,82 85,82 22,0 41,-3 54,-10 z m 178,-138 -16,86 c -7,37 -22,59 -40,59 -10,0 -14,-9 -14,-18 0,-7 1,-16 2,-24 l 20,-103 h -68 l -20,108 c -3,14 -4,26 -4,37 0,34 16,54 49,54 23,0 46,-9 67,-34 v 0 l -3,30 h 59 c 4,-18 7,-41 12,-67 l 24,-128 z m 143,195 12,-67 c 7,-35 20,-66 60,-66 3,0 6,0 9,0 l 13,-66 c -4,0 -7,0 -11,0 -27,0 -49,18 -63,43 h -1 c 1,-13 2,-26 3,-39 h -59 c -2,17 -4,52 -9,83 l -22,112 z m 155,0 36,-195 h -67 l -37,195 z m 9,-214 c 21,0 39,-13 39,-37 0,-19 -14,-31 -33,-31 -19,0 -37,14 -37,36 0,20 13,32 31,32 z m 85,-17 -7,36 h -24 l -10,51 h 24 l -13,68 c -3,16 -4,26 -4,36 0,26 18,44 55,44 13,0 28,-1 37,-5 l 8,-53 c -5,1 -11,1 -15,1 -13,0 -16,-7 -16,-15 0,-6 1,-16 3,-22 l 11,-54 h 39 l 10,-51 h -39 l 10,-55 z m 110,36 38,174 c 1,5 1,7 -1,10 -6,10 -16,20 -29,29 -10,6 -22,11 -32,13 l 15,58 c 13,-1 42,-11 65,-33 25,-23 50,-59 78,-115 l 67,-136 h -70 l -30,76 c -7,21 -11,33 -15,45 h -1 c -1,-12 -3,-25 -5,-44 l -9,-77 z m 414,138 c -10,4 -21,7 -36,7 -16,0 -34,-10 -34,-35 0,-33 23,-61 59,-61 10,0 17,2 24,4 l 16,-51 c -10,-4 -23,-6 -39,-6 -76,0 -130,51 -130,121 0,54 37,82 84,82 22,0 41,-3 55,-10 z m 191,-214 c -40,0 -75,14 -101,39 -31,29 -48,75 -48,124 0,64 42,112 111,112 41,0 76,-14 101,-39 31,-29 48,-75 48,-124 0,-66 -41,-112 -111,-112 z m -8,56 c 35,0 47,26 47,58 0,28 -11,69 -30,89 -10,10 -23,16 -37,16 -33,0 -50,-23 -50,-58 0,-30 12,-68 31,-88 11,-10 24,-17 39,-17 z m 193,215 15,-83 c 6,-37 22,-62 39,-62 10,0 14,8 14,20 0,6 -1,13 -2,21 l -19,104 h 64 l 16,-83 c 7,-38 21,-62 38,-62 10,0 16,8 16,18 0,7 -2,15 -3,23 l -19,104 h 65 l 21,-113 c 2,-9 3,-26 3,-33 0,-32 -14,-53 -47,-53 -24,0 -48,10 -65,34 -2,-14 -15,-34 -47,-34 -24,0 -47,9 -65,34 h -1 l 3,-30 h -58 c -2,18 -5,41 -10,66 l -24,129 z m 320,78 15,-82 h 1 c 7,5 20,8 34,8 69,0 112,-61 112,-128 0,-41 -22,-75 -64,-75 -22,0 -44,10 -59,29 h -1 l 3,-27 h -60 c -2,21 -7,57 -11,80 l -38,195 z m 32,-170 c 5,-31 20,-52 39,-52 14,0 20,12 20,25 0,33 -19,73 -44,73 -9,0 -16,-4 -21,-9 z m 315,32 c -17,8 -36,12 -56,12 -15,0 -27,-4 -35,-10 -3,-3 -6,-9 -7,-13 81,2 125,-17 125,-66 0,-40 -32,-62 -72,-62 -74,0 -116,60 -116,119 0,54 31,84 88,84 20,0 50,-3 76,-15 z m -36,-77 c 0,12 -14,18 -55,17 2,-12 14,-30 38,-30 11,0 17,6 17,12 z m 124,-94 -7,36 h -23 l -10,51 h 24 l -14,68 c -3,16 -4,26 -4,36 0,26 18,44 55,44 13,0 29,-1 37,-5 l 9,-53 c -6,1 -11,1 -16,1 -12,0 -16,-7 -16,-15 0,-6 2,-16 3,-22 l 11,-54 h 40 l 10,-51 h -40 l 10,-55 z m 260,171 c -17,8 -36,12 -56,12 -15,0 -27,-4 -34,-10 -4,-3 -7,-9 -7,-13 80,2 124,-17 124,-66 0,-40 -32,-62 -72,-62 -73,0 -116,60 -116,119 0,54 31,84 88,84 20,0 50,-3 76,-15 z m -36,-77 c 0,12 -14,18 -55,17 2,-12 14,-30 38,-30 11,0 17,6 17,12 z m 139,137 14,-74 c 8,-44 16,-87 18,-113 h 2 c 7,36 15,62 26,100 l 27,87 h 71 l 50,-267 h -63 l -14,78 c -8,40 -12,72 -13,101 h -1 c -7,-32 -14,-63 -25,-98 l -24,-81 h -80 l -50,267 z m 409,-61 c -13,5 -30,7 -48,7 -41,0 -67,-23 -67,-64 0,-36 15,-62 36,-79 14,-10 33,-16 54,-16 22,0 40,5 46,7 l 18,-54 c -8,-5 -30,-11 -59,-11 -37,0 -69,8 -96,25 -43,26 -72,71 -72,136 0,71 50,114 122,114 33,0 57,-5 71,-11 z m 197,1 c -17,8 -36,12 -56,12 -15,0 -27,-4 -34,-10 -4,-3 -7,-9 -7,-13 80,2 124,-17 124,-66 0,-40 -32,-62 -72,-62 -73,0 -116,60 -116,119 0,54 31,84 88,84 20,0 50,-3 76,-15 z m -36,-77 c 0,12 -14,18 -55,17 2,-12 14,-30 38,-30 11,0 17,6 17,12 z m 221,137 27,-144 h 36 l 10,-51 h -37 l 2,-9 c 3,-14 14,-26 29,-26 7,0 13,1 18,3 l 11,-54 c -7,-2 -18,-4 -32,-4 -20,0 -42,5 -59,19 -20,16 -29,40 -33,61 l -2,10 h -25 l -9,51 h 24 l -27,144 z m 229,-271 c -40,0 -75,14 -100,39 -31,29 -49,75 -49,124 0,64 42,112 111,112 41,0 76,-14 102,-39 30,-29 47,-75 47,-124 0,-66 -41,-112 -111,-112 z m -8,56 c 35,0 47,26 47,58 0,28 -11,69 -30,89 -10,10 -23,16 -37,16 -33,0 -49,-23 -49,-58 0,-30 11,-68 30,-88 11,-10 24,-17 39,-17 z m 195,215 12,-67 c 7,-35 21,-66 61,-66 3,0 6,0 8,0 l 14,-66 c -4,0 -8,0 -12,0 -27,0 -48,18 -62,43 h -2 c 2,-13 2,-26 3,-39 h -58 c -2,17 -4,52 -10,83 l -21,112 z m 164,0 h 67 l 19,-101 h 12 c 21,0 31,8 33,38 3,34 6,55 8,63 h 70 c -6,-11 -8,-50 -11,-77 -3,-22 -9,-39 -24,-47 l 1,-1 c 34,-12 58,-34 58,-74 0,-28 -14,-45 -33,-56 -21,-11 -48,-14 -73,-14 -30,0 -59,3 -77,8 z m 107,-214 c 5,-1 11,-2 20,-2 20,0 36,9 36,27 0,24 -20,39 -47,39 h -21 z m 294,154 c -17,8 -36,12 -56,12 -15,0 -27,-4 -35,-10 -3,-3 -6,-9 -7,-13 81,2 125,-17 125,-66 0,-40 -32,-62 -72,-62 -74,0 -116,60 -116,119 0,54 31,84 88,84 20,0 50,-3 76,-15 z m -36,-77 c 0,12 -14,18 -55,17 2,-12 14,-30 38,-30 11,0 17,6 17,12 z m 68,125 c 12,9 38,15 64,16 55,1 95,-24 95,-71 0,-29 -25,-43 -46,-53 -15,-7 -23,-13 -23,-19 0,-7 9,-11 21,-11 19,0 33,4 42,8 l 15,-47 c -10,-5 -29,-10 -54,-10 -54,0 -91,27 -91,70 0,26 21,42 43,53 17,7 23,13 23,20 0,6 -6,11 -19,11 -20,1 -43,-8 -55,-14 z m 347,-48 c -17,8 -36,12 -56,12 -15,0 -27,-4 -35,-10 -3,-3 -6,-9 -7,-13 81,2 125,-17 125,-66 0,-40 -32,-62 -72,-62 -74,0 -116,60 -116,119 0,54 31,84 88,84 20,0 50,-3 76,-15 z m -36,-77 c 0,12 -14,18 -55,17 2,-12 14,-30 38,-30 11,0 17,6 17,12 z m 262,137 c -1,-26 4,-65 8,-86 l 20,-102 c -17,-6 -44,-11 -69,-11 -100,0 -141,70 -141,134 0,42 25,69 60,69 20,0 45,-9 61,-38 h 1 c 0,11 -1,23 -2,34 z m -55,-108 c -9,46 -25,58 -37,58 -12,0 -20,-10 -20,-28 0,-28 21,-70 52,-70 4,0 8,0 13,1 z m 161,108 12,-67 c 7,-35 20,-66 60,-66 3,0 7,0 9,0 l 13,-66 c -4,0 -7,0 -11,0 -27,0 -49,18 -63,43 h -1 c 1,-13 2,-26 3,-39 h -58 c -2,17 -5,52 -10,83 l -22,112 z m 235,-57 c -9,4 -20,7 -35,7 -17,0 -34,-10 -34,-35 0,-33 22,-61 59,-61 10,0 17,2 24,4 l 15,-51 c -10,-4 -23,-6 -38,-6 -76,0 -130,51 -130,121 0,54 37,82 84,82 22,0 41,-3 55,-10 z m 94,57 16,-86 c 7,-37 22,-59 40,-59 11,0 15,7 15,18 0,7 -1,15 -2,23 l -20,104 h 67 l 21,-110 c 2,-12 4,-27 4,-36 0,-32 -16,-53 -50,-53 -23,0 -42,10 -58,25 h -1 l 21,-107 h -68 l -53,281 z m 421,0 c -1,-26 4,-65 8,-86 l 20,-102 c -17,-6 -44,-11 -69,-11 -100,0 -141,70 -141,134 0,42 25,69 60,69 20,0 45,-9 61,-38 h 1 c 0,11 -1,23 -2,34 z m -55,-108 c -9,46 -25,58 -37,58 -12,0 -20,-10 -20,-28 0,-28 21,-70 52,-70 4,0 8,0 13,1 z m 161,108 15,-83 c 8,-41 25,-62 41,-62 12,0 15,8 15,19 0,6 -1,14 -2,20 l -20,106 h 68 l 21,-113 c 1,-9 3,-24 3,-33 0,-31 -15,-53 -50,-53 -25,0 -48,9 -66,34 h -1 l 3,-30 h -59 c -3,18 -6,41 -11,66 l -25,129 z m 164,-4 c 11,2 41,6 76,6 61,0 100,-11 131,-35 32,-25 55,-68 55,-121 0,-42 -15,-70 -39,-88 -24,-19 -57,-27 -97,-27 -27,0 -53,2 -77,7 z m 108,-209 c 4,-1 10,-2 19,-2 39,0 62,21 62,61 0,29 -8,53 -24,72 -15,19 -41,29 -67,29 -10,0 -16,-1 -21,-1 z m 288,-54 -50,267 h 67 l 51,-267 z m 131,267 16,-83 c 7,-41 24,-62 40,-62 12,0 15,8 15,19 0,6 -1,14 -2,20 l -20,106 h 68 l 21,-113 c 2,-9 3,-24 3,-33 0,-31 -14,-53 -50,-53 -24,0 -47,9 -66,34 h -1 l 3,-30 h -59 c -3,18 -6,41 -11,66 l -24,129 z m 228,0 15,-83 c 8,-41 25,-62 41,-62 11,0 15,8 15,19 0,6 -1,14 -2,20 l -20,106 h 67 l 22,-113 c 1,-9 3,-24 3,-33 0,-31 -15,-53 -50,-53 -25,0 -48,9 -66,34 h -1 l 3,-30 h -60 c -2,18 -6,41 -11,66 l -24,129 z m 288,-199 c -72,0 -120,54 -120,123 0,50 36,80 85,80 68,0 120,-48 120,-123 0,-46 -33,-80 -85,-80 z m -9,51 c 18,0 24,13 24,30 0,27 -12,71 -40,71 -16,0 -25,-12 -25,-31 0,-23 12,-70 41,-70 z m 119,-47 32,195 h 69 l 108,-195 h -75 l -31,74 c -10,25 -17,40 -22,56 h -1 c -2,-16 -4,-31 -5,-55 l -6,-75 z m 352,132 3,63 h 72 l -29,-267 h -88 l -127,267 h 73 l 26,-63 z m -51,-51 21,-49 c 7,-14 14,-37 21,-53 h 1 c 1,16 2,38 3,53 l 3,49 z m 198,-117 -7,36 h -24 l -9,51 h 23 l -13,68 c -3,16 -4,26 -4,36 0,26 18,44 55,44 13,0 29,-1 37,-5 l 9,-53 c -6,1 -11,1 -16,1 -12,0 -16,-7 -16,-15 0,-6 2,-16 3,-22 l 11,-54 h 39 l 10,-51 h -39 l 10,-55 z m 161,231 36,-195 h -67 l -37,195 z m 10,-214 c 20,0 38,-13 38,-37 0,-19 -14,-31 -32,-31 -20,0 -38,14 -38,36 0,20 13,32 31,32 z m 161,15 c -71,0 -120,54 -120,123 0,50 36,80 86,80 68,0 119,-48 119,-123 0,-46 -33,-80 -85,-80 z m -9,51 c 18,0 25,13 25,30 0,27 -13,71 -41,71 -16,0 -25,-12 -25,-31 0,-23 12,-70 41,-70 z m 176,148 15,-83 c 8,-41 25,-62 41,-62 12,0 15,8 15,19 0,6 -1,14 -2,20 l -20,106 h 68 l 21,-113 c 1,-9 3,-24 3,-33 0,-31 -15,-53 -50,-53 -25,0 -47,9 -66,34 h -1 l 3,-30 h -59 c -3,18 -6,41 -11,66 l -25,129 z"
   id="path131"
   inkscape:connector-curvature="0"
   style="fill:#666666" />
  </g>
 </g>
</svg>