<?xml version="1.0" encoding="UTF-8" standalone="no"?>
<!-- Created with Inkscape (http://www.inkscape.org/) -->

<svg
   xmlns:dc="http://purl.org/dc/elements/1.1/"
   xmlns:cc="http://creativecommons.org/ns#"
   xmlns:rdf="http://www.w3.org/1999/02/22-rdf-syntax-ns#"
   xmlns:svg="http://www.w3.org/2000/svg"
   xmlns="http://www.w3.org/2000/svg"
   xmlns:sodipodi="http://sodipodi.sourceforge.net/DTD/sodipodi-0.dtd"
   xmlns:inkscape="http://www.inkscape.org/namespaces/inkscape"
   width="144.50905mm"
   height="55.022289mm"
   viewBox="0 0 512.03996 194.96087"
   id="svg2"
   version="1.1"
   inkscape:version="0.91 r13725"
   sodipodi:docname="logo_new_gray.svg">
  <defs
     id="defs4" />
  <sodipodi:namedview
     id="base"
     pagecolor="#ffffff"
     bordercolor="#666666"
     borderopacity="1.0"
     inkscape:pageopacity="0.0"
     inkscape:pageshadow="2"
     inkscape:zoom="1.6484704"
     inkscape:cx="257.80674"
     inkscape:cy="143.2912"
     inkscape:document-units="px"
     inkscape:current-layer="layer1"
     showgrid="false"
     fit-margin-top="0"
     fit-margin-left="0"
     fit-margin-right="0"
     fit-margin-bottom="0"
     inkscape:window-width="1440"
     inkscape:window-height="856"
     inkscape:window-x="65"
     inkscape:window-y="23"
     inkscape:window-maximized="0" />
  <metadata
     id="metadata7">
    <rdf:RDF>
      <cc:Work
         rdf:about="">
        <dc:format>image/svg+xml</dc:format>
        <dc:type
           rdf:resource="http://purl.org/dc/dcmitype/StillImage" />
        <dc:title></dc:title>
      </cc:Work>
    </rdf:RDF>
  </metadata>
  <g
     inkscape:label="Layer 1"
     inkscape:groupmode="layer"
     id="layer1"
     transform="translate(-386.33903,252.27774)">
    <text
       xml:space="preserve"
       style="font-style:normal;font-weight:normal;font-size:111.94644928px;line-height:125%;font-family:sans-serif;letter-spacing:0px;word-spacing:0px;fill:#000000;fill-opacity:1;stroke:none;stroke-width:1px;stroke-linecap:butt;stroke-linejoin:miter;stroke-opacity:1"
       x="1161.1093"
       y="2471.5381"
       id="text7278"
       sodipodi:linespacing="125%"
       inkscape:export-xdpi="90"
       inkscape:export-ydpi="90"><tspan
         sodipodi:role="line"
         id="tspan7280"
         x="1161.1093"
         y="2471.5381" /></text>
    <text
       xml:space="preserve"
       style="font-style:normal;font-weight:normal;font-size:111.94644928px;line-height:125%;font-family:sans-serif;letter-spacing:0px;word-spacing:0px;fill:#000000;fill-opacity:1;stroke:none;stroke-width:1px;stroke-linecap:butt;stroke-linejoin:miter;stroke-opacity:1"
       x="1198.8037"
       y="2541.186"
       id="text7282"
       sodipodi:linespacing="125%"
       inkscape:export-xdpi="90"
       inkscape:export-ydpi="90"><tspan
         sodipodi:role="line"
         id="tspan7284"
         x="1198.8037"
         y="2541.186" /></text>
    <g
       id="g4148"
       style="font-style:normal;font-weight:normal;font-size:206.78631592px;line-height:125%;font-family:sans-serif;letter-spacing:0px;word-spacing:0px;fill:#000000;fill-opacity:0;stroke:none;stroke-width:1px;stroke-linecap:butt;stroke-linejoin:miter;stroke-opacity:1"
       transform="matrix(1,0,0,-1,-61.497601,-815.85765)">
      <path
         inkscape:connector-curvature="0"
         id="path4150"
         style="font-style:normal;font-variant:normal;font-weight:bold;font-stretch:normal;font-family:'DIN Alternate';-inkscape-font-specification:'DIN Alternate Bold';fill:#000000;fill-opacity:0;stroke:none"
         d="m 751.03233,-731.23502 51.49464,0 q 29.88709,0.20194 44.83063,24.83859 5.3514,8.27953 6.76498,17.36682 1.11067,9.08729 1.11067,31.40163 0,23.72792 -1.71649,33.11812 -0.80776,4.74559 -2.42328,8.48147 -1.71648,3.63492 -4.13976,7.57274 -6.46207,10.3999 -17.97264,17.16488 -11.4096,7.26983 -27.96866,7.26983 l -49.98009,0 0,-147.21408 z m 22.31435,126.11138 26.65605,0 q 18.78039,0 27.26186,-12.82318 3.73589,-4.74558 4.74559,-12.01541 0.90873,-7.16886 0.90873,-26.85799 0,-19.18428 -0.90873,-27.46381 -1.21164,-8.27953 -5.75529,-13.42899 -9.28922,-12.82318 -26.25216,-12.4193 l -26.65605,0 0,105.00868 z" />
    </g>
    <g
       transform="matrix(1.1028604,0,0,1.1028604,-142.95741,-891.48565)"
       id="g4152"
       style="font-style:normal;font-weight:normal;font-size:187.5px;line-height:125%;font-family:sans-serif;letter-spacing:0px;word-spacing:0px;fill:#333333;fill-opacity:1;stroke:#808080;stroke-width:2.26683283;stroke-linecap:butt;stroke-linejoin:miter;stroke-miterlimit:4;stroke-dasharray:none;stroke-opacity:1">
      <path
         inkscape:connector-curvature="0"
         id="path4154"
         style="font-style:normal;font-variant:normal;font-weight:bold;font-stretch:normal;font-family:'DIN Alternate';-inkscape-font-specification:'DIN Alternate Bold';fill:#333333;fill-opacity:1;stroke:#808080;stroke-width:2.26683283;stroke-miterlimit:4;stroke-dasharray:none;stroke-opacity:1"
         d="m 849.78851,601.26501 51.7273,0 q 19.68384,0.18311 29.57153,9.8877 9.97925,9.79614 9.97925,25.90942 0.1831,8.23975 -3.93677,15.74707 -2.10571,3.57056 -6.04248,6.77491 -3.93677,3.38745 -9.70459,6.13403 l 0,0.36621 q 10.89478,2.83814 16.47949,11.44409 5.21851,8.88062 5.21851,19.31763 -0.18311,17.30347 -10.80322,27.37427 -10.52857,10.52856 -26.27564,10.52856 l -56.21338,0 0,-133.48389 z m 20.23316,74.24927 0,40.1001 31.12793,0 q 11.26098,-0.18311 16.47949,-6.13403 5.21851,-5.85938 5.21851,-13.91602 0,-8.23975 -5.21851,-14.09912 -5.21851,-5.76782 -16.47949,-5.95093 l -31.12793,0 z m 0,-56.21338 0,38.17749 29.20532,0 q 11.07788,0 16.29639,-5.76782 5.31006,-5.31006 5.31006,-13.3667 0,-8.05664 -5.31006,-13.64136 -5.21851,-5.2185 -16.29639,-5.40161 l -29.20532,0 z" />
    </g>
    <path
       inkscape:export-ydpi="90"
       inkscape:export-xdpi="90"
       inkscape:export-filename="/Users/santannajj/Desktop/a.png"
       style="fill:#808080;fill-opacity:1"
       d="m 685.84568,-80.255958 c 0,0 -13.13187,2.40939 -71.34285,2.47448 -42.36854,0.0473 -68.27865,-0.54659 -75.00014,-1.71915 -5.64785,-0.98549 -15.45235,-3.88779 -21.78761,-6.4497 l -11.51887,-4.65804 -23.16496,16.64574 -23.16532,16.64579 -36.7635,-0.0835 -36.7634,-0.0835 0.25839,-7.30186 c 0.14228,-4.01604 0.88077,-8.28562 1.6414,-9.4883 0.76036,-1.20258 8.43667,-12.59726 17.05776,-25.32134 8.62139,-12.724232 15.6758,-23.455812 15.67637,-23.847912 0.002,-0.39292 -1.23989,-1.26361 -2.75633,-1.9363 -2.55731,-1.13477 -2.75301,-3.26442 -2.69799,-29.38753 0.0501,-23.62607 0.4241,-28.34943 2.32178,-29.31347 l 0.80892,-0.45409 c -0.22135,0.004 -8.43165,-18.7054 -16.76472,-31.22292 -15.03095,-22.57685 -15.15256,-22.80714 -15.21626,-28.83624 -0.0355,-3.34267 0.31875,-6.45338 0.78669,-6.91248 0.46789,-0.45918 17.02707,-0.80527 36.79776,-0.76883 l 35.94644,0.066 22.66471,16.22841 c 12.46562,8.92554 23.24111,16.22099 23.94576,16.21197 0.7049,-0.009 5.98844,-1.8446 11.74193,-4.07923 18.75488,-7.28411 25.87245,-7.86899 94.76229,-7.78515 58.13121,0.0708 72.50541,1.65102 72.50541,1.65102 z"
       id="path4156"
       inkscape:connector-curvature="0"
       sodipodi:nodetypes="cssscccccscsscsccscsscscsscc" />
    <path
       d="m 431.17272,-198.44197 27.81324,0.17459 q 16.13853,0.21229 23.7137,13.79996 2.72366,4.56746 3.30417,9.56541 0.41689,4.99692 -0.0325,17.25789 -0.47783,13.03769 -1.59404,18.19146 -0.53185,2.6048 -1.47966,4.65207 -1.0003,1.99144 -2.38846,4.14692 -3.69972,5.69248 -10.05303,9.37058 -6.30894,3.95584 -15.25281,3.8997 l -26.99522,-0.16946 2.96458,-80.88912 z m 9.51279,69.36957 14.39745,0.0904 q 10.14366,0.0637 14.98289,-6.95347 2.11339,-2.59486 2.80515,-6.58597 0.63519,-3.93596 1.03168,-14.75447 0.38633,-10.5411 0.0622,-15.0935 -0.48769,-4.55343 -2.83811,-7.39829 -4.75906,-7.07739 -13.9292,-6.91299 l -14.39745,-0.0904 -2.11465,57.69869 z"
       style="font-style:normal;font-variant:normal;font-weight:bold;font-stretch:normal;font-size:112.66447449px;line-height:125%;font-family:'DIN Alternate';-inkscape-font-specification:'DIN Alternate Bold';letter-spacing:0px;word-spacing:0px;fill:#ffffff;fill-opacity:1;stroke:none;stroke-width:1px;stroke-linecap:butt;stroke-linejoin:miter;stroke-opacity:1"
       id="path4158"
       inkscape:connector-curvature="0" />
    <path
       d="m 501.41481,-198.00104 27.81325,0.17459 q 16.13852,0.21229 23.71369,13.79995 2.72367,4.56747 3.30417,9.56542 0.4169,4.99692 -0.0325,17.25789 -0.47783,13.03768 -1.59405,18.19146 -0.53184,2.60479 -1.47965,4.65207 -1.00031,1.99144 -2.38846,4.14692 -3.69973,5.69248 -10.05304,9.37058 -6.30894,3.95584 -15.25281,3.89969 l -26.99522,-0.16945 2.96458,-80.88912 z m 9.51279,69.36956 14.39745,0.0904 q 10.14366,0.0637 14.98289,-6.95347 2.1134,-2.59487 2.80516,-6.58597 0.63518,-3.93596 1.03167,-14.75447 0.38633,-10.5411 0.0622,-15.0935 -0.4877,-4.55343 -2.83811,-7.39829 -4.75906,-7.0774 -13.9292,-6.91299 l -14.39746,-0.0904 -2.11465,57.69869 z"
       style="font-style:normal;font-variant:normal;font-weight:bold;font-stretch:normal;font-size:112.66447449px;line-height:125%;font-family:'DIN Alternate';-inkscape-font-specification:'DIN Alternate Bold';letter-spacing:0px;word-spacing:0px;fill:#ffffff;fill-opacity:1;stroke:none;stroke-width:1px;stroke-linecap:butt;stroke-linejoin:miter;stroke-opacity:1"
       id="path4160"
       inkscape:connector-curvature="0" />
    <path
       d="m 565.93215,-145.5443 q 0.33346,-9.09864 1.98486,-13.97159 1.70187,-4.76166 4.98491,-8.01509 2.45077,-2.87022 6.73339,-5.11852 4.22402,-2.13768 10.71784,-2.2079 6.70384,0.15307 10.76926,2.34278 4.00682,2.30034 6.13706,5.19932 3.26125,3.29451 4.50431,8.07465 1.18447,4.89075 0.851,13.98939 -0.33346,9.09864 -1.87172,13.86132 -1.5928,4.76234 -5.10212,8.23632 -1.13748,1.26918 -2.76375,2.47981 -1.46877,1.37808 -3.74133,2.36268 -4.23216,2.35959 -10.94413,2.42845 -6.48569,-0.1517 -10.54297,-2.56333 -4.11996,-2.19007 -6.36536,-4.92328 -3.03498,-3.51506 -4.38712,-8.29589 -1.2976,-4.78048 -0.96413,-13.87912 z m 35.28058,0.33245 q 0.2257,-6.15822 -0.21596,-8.9911 -0.44572,-2.72193 -2.0611,-4.78528 -1.18315,-1.94966 -3.5966,-3.07465 -2.30234,-1.17979 -5.41088,-1.1993 -2.89039,-0.0181 -5.38721,1.13152 -2.3857,1.09487 -3.92933,3.02741 -1.5477,2.0435 -2.30176,4.75789 -0.75813,2.82535 -0.97976,8.87261 -0.2196,5.99178 0.33316,8.76987 0.55073,2.83356 1.9439,5.0065 1.41147,1.67363 3.70974,2.96439 2.40937,1.23595 5.29977,1.25409 3.10854,0.0195 5.49831,-1.18631 2.50088,-1.26063 3.8162,-2.91714 1.76991,-2.15309 2.41897,-4.97912 0.64702,-2.77055 0.86255,-8.65138 z"
       style="font-style:normal;font-variant:normal;font-weight:bold;font-stretch:normal;font-size:112.66447449px;line-height:125%;font-family:'DIN Alternate';-inkscape-font-specification:'DIN Alternate Bold';letter-spacing:0px;word-spacing:0px;fill:#ffffff;fill-opacity:1;stroke:none;stroke-width:1px;stroke-linecap:butt;stroke-linejoin:miter;stroke-opacity:1"
       id="path4162"
       inkscape:connector-curvature="0" />
    <path
       d="m 626.23841,-135.95403 q 9.19847,7.99314 22.28299,8.18626 15.4963,-0.12469 16.11907,-11.16375 0.44051,-9.04248 -9.96327,-10.93902 -4.77475,-0.69588 -10.4705,-1.56402 -10.1897,-1.78422 -15.31461,-7.80956 -5.28242,-6.1928 -4.95912,-15.01404 0.38837,-10.59659 7.55231,-17.04421 6.94377,-6.39352 19.27292,-6.42711 14.82153,0.42599 25.48839,8.53932 l -7.07796,10.05517 0,0 q -8.72427,-6.04793 -19.45968,-6.33729 -5.56266,-0.0349 -9.37479,2.77126 -3.9798,2.91611 -4.30238,8.74078 -0.1281,3.4952 2.44046,6.34143 2.56652,2.90171 8.41572,4.04827 3.25181,0.57534 8.89711,1.33217 11.1229,1.62361 16.22544,8.25922 5.05207,6.52431 4.73691,15.12363 -1.44982,23.18667 -28.78445,23.34804 -17.66959,-0.11092 -29.96977,-11.28658 l 8.24521,-9.15997 0,0 z"
       style="font-style:normal;font-variant:normal;font-weight:bold;font-stretch:normal;font-size:112.66447449px;line-height:125%;font-family:'DIN Alternate';-inkscape-font-specification:'DIN Alternate Bold';letter-spacing:0px;word-spacing:0px;fill:#ffffff;fill-opacity:1;stroke:none;stroke-width:1px;stroke-linecap:butt;stroke-linejoin:miter;stroke-opacity:1"
       id="path4164"
       inkscape:connector-curvature="0" />
    <g
       id="g4166"
       style="font-style:normal;font-weight:normal;font-size:207.2046814px;line-height:125%;font-family:sans-serif;letter-spacing:0px;word-spacing:0px;fill:#333333;fill-opacity:1;stroke:#808080;stroke-width:2.50200009;stroke-linecap:butt;stroke-linejoin:miter;stroke-miterlimit:4;stroke-dasharray:none;stroke-opacity:1"
       transform="matrix(0.99796152,0,0,1.0020426,-61.497601,-815.85765)">
      <path
         inkscape:connector-curvature="0"
         id="path4168"
         style="font-style:normal;font-variant:normal;font-weight:bold;font-stretch:normal;font-family:'DIN Alternate';-inkscape-font-specification:'DIN Alternate Bold';fill:#333333;fill-opacity:1;stroke:#808080;stroke-width:2.50200009;stroke-miterlimit:4;stroke-dasharray:none;stroke-opacity:1"
         d="m 748.90394,585.68687 51.59882,0 q 29.94755,0.20234 44.92133,24.88884 5.36223,8.29628 6.77867,17.40195 1.11291,9.10568 1.11291,31.46517 0,23.77593 -1.71996,33.18512 -0.80939,4.75519 -2.42818,8.49863 -1.71996,3.64227 -4.14814,7.58806 -6.47514,10.42094 -18.009,17.19961 -11.43268,7.28454 -28.02524,7.28454 l -50.08121,0 0,-147.51192 z m 22.35949,126.36652 26.70998,0 q 18.81839,0 27.31702,-12.84912 3.74345,-4.75518 4.75519,-12.03972 0.91057,-7.18337 0.91057,-26.91233 0,-19.22309 -0.91057,-27.51937 -1.21409,-8.29628 -5.76693,-13.45616 -9.30802,-12.84912 -26.30528,-12.44443 l -26.70998,0 0,105.22113 z" />
    </g>
  </g>
</svg>
