<?xml version="1.0" encoding="UTF-8" standalone="no"?>
<!-- Created with Inkscape (http://www.inkscape.org/) -->

<svg
   xmlns:dc="http://purl.org/dc/elements/1.1/"
   xmlns:cc="http://creativecommons.org/ns#"
   xmlns:rdf="http://www.w3.org/1999/02/22-rdf-syntax-ns#"
   xmlns:svg="http://www.w3.org/2000/svg"
   xmlns="http://www.w3.org/2000/svg"
   xmlns:sodipodi="http://sodipodi.sourceforge.net/DTD/sodipodi-0.dtd"
   xmlns:inkscape="http://www.inkscape.org/namespaces/inkscape"
   width="144.50905mm"
   height="55.022289mm"
   viewBox="0 0 512.03996 194.96087"
   id="svg2"
   version="1.1"
   inkscape:version="0.92.3 (2405546, 2018-03-11)"
   sodipodi:docname="logo-new-clean.svg">
  <defs
     id="defs4" />
  <sodipodi:namedview
     id="base"
     pagecolor="#ffffff"
     bordercolor="#666666"
     borderopacity="1.0"
     inkscape:pageopacity="0.0"
     inkscape:pageshadow="2"
     inkscape:zoom="3.7726107"
     inkscape:cx="273.08797"
     inkscape:cy="103.97913"
     inkscape:document-units="px"
     inkscape:current-layer="layer1"
     showgrid="false"
     fit-margin-top="0"
     fit-margin-left="0"
     fit-margin-right="0"
     fit-margin-bottom="0"
     inkscape:window-width="3440"
     inkscape:window-height="1377"
     inkscape:window-x="0"
     inkscape:window-y="30"
     inkscape:window-maximized="1" />
  <metadata
     id="metadata7">
    <rdf:RDF>
      <cc:Work
         rdf:about="">
        <dc:format>image/svg+xml</dc:format>
        <dc:type
           rdf:resource="http://purl.org/dc/dcmitype/StillImage" />
        <dc:title />
      </cc:Work>
    </rdf:RDF>
  </metadata>
  <g
     inkscape:label="Layer 1"
     inkscape:groupmode="layer"
     id="layer1"
     transform="translate(-386.33903,252.27774)">
    <text
       xml:space="preserve"
       style="font-style:normal;font-weight:normal;line-height:0%;font-family:sans-serif;letter-spacing:0px;word-spacing:0px;fill:#000000;fill-opacity:1;stroke:none;stroke-width:1px;stroke-linecap:butt;stroke-linejoin:miter;stroke-opacity:1"
       x="1161.1093"
       y="2471.5381"
       id="text7278"
       inkscape:export-xdpi="90"
       inkscape:export-ydpi="90"><tspan
         sodipodi:role="line"
         id="tspan7280"
         x="1161.1093"
         y="2471.5381"
         style="font-size:111.94644928px;line-height:1.25"> </tspan></text>
    <text
       xml:space="preserve"
       style="font-style:normal;font-weight:normal;line-height:0%;font-family:sans-serif;letter-spacing:0px;word-spacing:0px;fill:#000000;fill-opacity:1;stroke:none;stroke-width:1px;stroke-linecap:butt;stroke-linejoin:miter;stroke-opacity:1"
       x="1198.8037"
       y="2541.186"
       id="text7282"
       inkscape:export-xdpi="90"
       inkscape:export-ydpi="90"><tspan
         sodipodi:role="line"
         id="tspan7284"
         x="1198.8037"
         y="2541.186"
         style="font-size:111.94644928px;line-height:1.25"> </tspan></text>
    <g
       id="g854"
       transform="matrix(0.97121918,0,0,0.89393554,24.026757,-15.556219)">
      <g
         transform="matrix(1,0,0,-1,-61.497601,-815.85765)"
         style="font-style:normal;font-weight:normal;font-size:206.78631592px;line-height:125%;font-family:sans-serif;letter-spacing:0px;word-spacing:0px;fill:#000000;fill-opacity:0;stroke:none;stroke-width:1px;stroke-linecap:butt;stroke-linejoin:miter;stroke-opacity:1"
         id="g4148">
        <path
           d="m 751.03233,-731.23502 h 51.49464 q 29.88709,0.20194 44.83063,24.83859 5.3514,8.27953 6.76498,17.36682 1.11067,9.08729 1.11067,31.40163 0,23.72792 -1.71649,33.11812 -0.80776,4.74559 -2.42328,8.48147 -1.71648,3.63492 -4.13976,7.57274 -6.46207,10.3999 -17.97264,17.16488 -11.4096,7.26983 -27.96866,7.26983 h -49.98009 z m 22.31435,126.11138 h 26.65605 q 18.78039,0 27.26186,-12.82318 3.73589,-4.74558 4.74559,-12.01541 0.90873,-7.16886 0.90873,-26.85799 0,-19.18428 -0.90873,-27.46381 -1.21164,-8.27953 -5.75529,-13.42899 -9.28922,-12.82318 -26.25216,-12.4193 h -26.65605 z"
           style="font-style:normal;font-variant:normal;font-weight:bold;font-stretch:normal;font-family:'DIN Alternate';-inkscape-font-specification:'DIN Alternate Bold';fill:#000000;fill-opacity:0;stroke:none"
           id="path4150"
           inkscape:connector-curvature="0" />
      </g>
      <path
         inkscape:connector-curvature="0"
         id="path4158"
         style="font-style:normal;font-variant:normal;font-weight:bold;font-stretch:normal;font-size:112.66447449px;line-height:125%;font-family:'DIN Alternate';-inkscape-font-specification:'DIN Alternate Bold';letter-spacing:0px;word-spacing:0px;fill:#000000;fill-opacity:1;stroke:none;stroke-width:1px;stroke-linecap:butt;stroke-linejoin:miter;stroke-opacity:1"
         d="m 438.67272,-198.44197 27.81324,0.17459 q 16.13853,0.21229 23.7137,13.79996 2.72366,4.56746 3.30417,9.56541 0.41689,4.99692 -0.0325,17.25789 -0.47783,13.03769 -1.59404,18.19146 -0.53185,2.6048 -1.47966,4.65207 -1.0003,1.99144 -2.38846,4.14692 -3.69972,5.69248 -10.05303,9.37058 -6.30894,3.95584 -15.25281,3.8997 l -26.99522,-0.16946 2.96458,-80.88912 z m 9.51279,69.36957 14.39745,0.0904 q 10.14366,0.0637 14.98289,-6.95347 2.11339,-2.59486 2.80515,-6.58597 0.63519,-3.93596 1.03168,-14.75447 0.38633,-10.5411 0.0622,-15.0935 -0.48769,-4.55343 -2.83811,-7.39829 -4.75906,-7.07739 -13.9292,-6.91299 l -14.39745,-0.0904 -2.11465,57.69869 z" />
      <path
         inkscape:connector-curvature="0"
         id="path4160"
         style="font-style:normal;font-variant:normal;font-weight:bold;font-stretch:normal;font-size:112.66447449px;line-height:125%;font-family:'DIN Alternate';-inkscape-font-specification:'DIN Alternate Bold';letter-spacing:0px;word-spacing:0px;fill:#000000;fill-opacity:1;stroke:none;stroke-width:1px;stroke-linecap:butt;stroke-linejoin:miter;stroke-opacity:1"
         d="m 507.03981,-198.00104 27.81325,0.17459 q 16.13852,0.21229 23.71369,13.79995 2.72367,4.56747 3.30417,9.56542 0.4169,4.99692 -0.0325,17.25789 -0.47783,13.03768 -1.59405,18.19146 -0.53184,2.60479 -1.47965,4.65207 -1.00031,1.99144 -2.38846,4.14692 -3.69973,5.69248 -10.05304,9.37058 -6.30894,3.95584 -15.25281,3.89969 l -26.99522,-0.16945 2.96458,-80.88912 z m 9.51279,69.36956 14.39745,0.0904 q 10.14366,0.0637 14.98289,-6.95347 2.1134,-2.59487 2.80516,-6.58597 0.63518,-3.93596 1.03167,-14.75447 0.38633,-10.5411 0.0622,-15.0935 -0.4877,-4.55343 -2.83811,-7.39829 -4.75906,-7.0774 -13.9292,-6.91299 l -14.39746,-0.0904 -2.11465,57.69869 z" />
      <path
         inkscape:connector-curvature="0"
         id="path4162"
         style="font-style:normal;font-variant:normal;font-weight:bold;font-stretch:normal;font-size:112.66447449px;line-height:125%;font-family:'DIN Alternate';-inkscape-font-specification:'DIN Alternate Bold';letter-spacing:0px;word-spacing:0px;fill:#000000;fill-opacity:1;stroke:none;stroke-width:1px;stroke-linecap:butt;stroke-linejoin:miter;stroke-opacity:1"
         d="m 571.55715,-145.5443 q 0.33346,-9.09864 1.98486,-13.97159 1.70187,-4.76166 4.98491,-8.01509 2.45077,-2.87022 6.73339,-5.11852 4.22402,-2.13768 10.71784,-2.2079 6.70384,0.15307 10.76926,2.34278 4.00682,2.30034 6.13706,5.19932 3.26125,3.29451 4.50431,8.07465 1.18447,4.89075 0.851,13.98939 -0.33346,9.09864 -1.87172,13.86132 -1.5928,4.76234 -5.10212,8.23632 -1.13748,1.26918 -2.76375,2.47981 -1.46877,1.37808 -3.74133,2.36268 -4.23216,2.35959 -10.94413,2.42845 -6.48569,-0.1517 -10.54297,-2.56333 -4.11996,-2.19007 -6.36536,-4.92328 -3.03498,-3.51506 -4.38712,-8.29589 -1.2976,-4.78048 -0.96413,-13.87912 z m 35.28058,0.33245 q 0.2257,-6.15822 -0.21596,-8.9911 -0.44572,-2.72193 -2.0611,-4.78528 -1.18315,-1.94966 -3.5966,-3.07465 -2.30234,-1.17979 -5.41088,-1.1993 -2.89039,-0.0181 -5.38721,1.13152 -2.3857,1.09487 -3.92933,3.02741 -1.5477,2.0435 -2.30176,4.75789 -0.75813,2.82535 -0.97976,8.87261 -0.2196,5.99178 0.33316,8.76987 0.55073,2.83356 1.9439,5.0065 1.41147,1.67363 3.70974,2.96439 2.40937,1.23595 5.29977,1.25409 3.10854,0.0195 5.49831,-1.18631 2.50088,-1.26063 3.8162,-2.91714 1.76991,-2.15309 2.41897,-4.97912 0.64702,-2.77055 0.86255,-8.65138 z" />
      <path
         inkscape:connector-curvature="0"
         id="path4164"
         style="font-style:normal;font-variant:normal;font-weight:bold;font-stretch:normal;font-size:112.66447449px;line-height:125%;font-family:'DIN Alternate';-inkscape-font-specification:'DIN Alternate Bold';letter-spacing:0px;word-spacing:0px;fill:#000000;fill-opacity:1;stroke:none;stroke-width:1px;stroke-linecap:butt;stroke-linejoin:miter;stroke-opacity:1"
         d="m 626.23841,-135.95403 q 9.19847,7.99314 22.28299,8.18626 15.4963,-0.12469 16.11907,-11.16375 0.44051,-9.04248 -9.96327,-10.93902 -4.77475,-0.69588 -10.4705,-1.56402 -10.1897,-1.78422 -15.31461,-7.80956 -5.28242,-6.1928 -4.95912,-15.01404 0.38837,-10.59659 7.55231,-17.04421 6.94377,-6.39352 19.27292,-6.42711 14.82153,0.42599 25.48839,8.53932 l -7.07796,10.05517 v 0 q -8.72427,-6.04793 -19.45968,-6.33729 -5.56266,-0.0349 -9.37479,2.77126 -3.9798,2.91611 -4.30238,8.74078 -0.1281,3.4952 2.44046,6.34143 2.56652,2.90171 8.41572,4.04827 3.25181,0.57534 8.89711,1.33217 11.1229,1.62361 16.22544,8.25922 5.05207,6.52431 4.73691,15.12363 -1.44982,23.18667 -28.78445,23.34804 -17.66959,-0.11092 -29.96977,-11.28658 z" />
      <path
         inkscape:connector-curvature="0"
         id="path885"
         d="m 386.52541,-252.08576 h 73.80716 l 46.59543,32.98957 19.19732,-7.26889 11.18291,-2.60935 9.69185,-1.11829 16.40159,-0.9319 93.00448,-0.18639 h 30.5666 V -78.937136 H 546.81369 l -6.33697,-0.186385 -10.06462,-2.609344 -24.21589,-8.8755 -46.33028,33.291527 h -72.96775 v -15.283323 l 34.29423,-50.509449 -5.56558,-3.21329 v -55.31057 l 2.78279,-2.78279 -32.07059,-55.92745 z"
         style="fill:none;stroke:#000000;stroke-width:16.78125191;stroke-linecap:butt;stroke-linejoin:miter;stroke-miterlimit:4;stroke-dasharray:none;stroke-opacity:1" />
      <g
         transform="matrix(0.76301759,0,0,1,159.42925,0)"
         id="g840">
        <text
           xml:space="preserve"
           style="font-style:normal;font-weight:normal;font-size:246.08152771px;line-height:1.25;font-family:sans-serif;letter-spacing:0px;word-spacing:0px;fill:#000000;fill-opacity:1;stroke:none;stroke-width:6.1520381"
           x="659.47443"
           y="-70.723312"
           id="text830"
           transform="scale(1.0014689,0.99853328)"><tspan
             sodipodi:role="line"
             id="tspan828"
             x="659.47443"
             y="-70.723312"
             style="stroke-width:6.1520381">D</tspan></text>
        <text
           xml:space="preserve"
           style="font-style:normal;font-weight:normal;font-size:245.91265869px;line-height:1.25;font-family:sans-serif;letter-spacing:0px;word-spacing:0px;fill:#000000;fill-opacity:1;stroke:none;stroke-width:6.14781618"
           x="809.58374"
           y="-70.487457"
           id="text834"><tspan
             sodipodi:role="line"
             id="tspan832"
             x="809.58374"
             y="-70.487457"
             style="stroke-width:6.14781618">B</tspan></text>
      </g>
    </g>
  </g>
</svg>
