<?xml version="1.0" encoding="UTF-8"?>
<svg xmlns="http://www.w3.org/2000/svg" xmlns:xlink="http://www.w3.org/1999/xlink" width="73.42pt" height="37.42pt" viewBox="0 0 73.42 37.42" version="1.1">
<g id="surface1">
<path style=" stroke:none;fill-rule:nonzero;fill:rgb(12.559509%,9.503174%,5.332947%);fill-opacity:1;" d="M 67.808594 22.609375 C 70.910156 22.609375 73.421875 25.125 73.421875 28.222656 L 73.421875 31.808594 C 73.421875 34.910156 70.910156 37.421875 67.808594 37.421875 L 59.429688 37.421875 C 56.332031 37.421875 53.820312 34.910156 53.820312 31.808594 L 53.820312 29.59375 C 53.820312 25.738281 50.691406 22.609375 46.835938 22.609375 L 6.984375 22.609375 C 3.128906 22.609375 0 19.484375 0 15.625 L 0 6.988281 C 0 3.132812 3.128906 0.00390625 6.984375 0.00390625 L 46.835938 0.00390625 C 50.691406 0.00390625 53.820312 3.132812 53.820312 6.988281 L 53.820312 15.625 C 53.820312 19.484375 56.945312 22.609375 60.804688 22.609375 L 67.808594 22.609375 "/>
<path style=" stroke:none;fill-rule:nonzero;fill:rgb(100%,100%,100%);fill-opacity:1;" d="M 12.03125 13.378906 C 12.03125 12.851562 11.375 12.636719 10.527344 12.382812 L 8.832031 11.871094 C 7.609375 11.507812 6.535156 10.648438 6.535156 9.144531 C 6.535156 7.328125 8.160156 6.09375 10.367188 6.09375 C 12.074219 6.09375 14.089844 6.683594 14.089844 7.773438 C 14.089844 8.445312 13.753906 8.859375 13.132812 8.859375 C 12.8125 8.859375 12.53125 8.753906 12.207031 8.644531 C 11.734375 8.472656 11.160156 8.269531 10.367188 8.269531 C 9.71875 8.269531 8.914062 8.523438 8.914062 9.035156 C 8.914062 9.492188 9.277344 9.707031 10.070312 9.949219 L 11.964844 10.527344 C 13.242188 10.917969 14.410156 11.683594 14.410156 13.445312 C 14.410156 15.324219 12.652344 16.535156 10.394531 16.535156 C 8.496094 16.535156 6.28125 15.945312 6.28125 14.855469 C 6.28125 14.183594 6.667969 13.765625 7.34375 13.765625 C 7.691406 13.765625 8.011719 13.859375 8.375 13.980469 C 8.886719 14.15625 9.492188 14.359375 10.394531 14.359375 C 11.160156 14.359375 12.03125 14.007812 12.03125 13.378906 "/>
<path style=" stroke:none;fill-rule:nonzero;fill:rgb(100%,100%,100%);fill-opacity:1;" d="M 23.550781 7.300781 C 23.550781 6.535156 23.953125 6.148438 24.707031 6.148438 C 25.472656 6.148438 25.875 6.535156 25.875 7.300781 L 25.875 11.738281 C 25.875 14.652344 23.925781 16.535156 21.265625 16.535156 C 18.617188 16.535156 16.667969 14.652344 16.667969 11.738281 L 16.667969 7.300781 C 16.667969 6.535156 17.074219 6.148438 17.824219 6.148438 C 18.589844 6.148438 18.992188 6.535156 18.992188 7.300781 L 18.992188 11.738281 C 18.992188 13.308594 19.949219 14.25 21.265625 14.25 C 22.59375 14.25 23.550781 13.308594 23.550781 11.738281 L 23.550781 7.300781 "/>
<path style=" stroke:none;fill-rule:nonzero;fill:rgb(100%,100%,100%);fill-opacity:1;" d="M 30.929688 8.457031 L 30.929688 11.160156 L 32.890625 11.160156 C 33.777344 11.160156 34.476562 10.757812 34.476562 9.816406 C 34.476562 8.859375 33.777344 8.457031 32.890625 8.457031 Z M 33.050781 13.269531 L 30.929688 13.269531 L 30.929688 15.324219 C 30.929688 16.09375 30.523438 16.480469 29.757812 16.480469 C 29.007812 16.480469 28.601562 16.09375 28.601562 15.324219 L 28.601562 7.394531 C 28.601562 6.628906 29.007812 6.238281 29.757812 6.238281 L 33.09375 6.238281 C 35.324219 6.238281 36.867188 7.707031 36.867188 9.816406 C 36.867188 11.105469 36.277344 12.085938 35.28125 12.609375 L 36.359375 14.761719 C 36.464844 14.976562 36.503906 15.175781 36.503906 15.378906 C 36.503906 16.050781 35.738281 16.480469 35.160156 16.480469 C 34.730469 16.480469 34.421875 16.226562 34.207031 15.742188 L 33.050781 13.269531 "/>
<path style=" stroke:none;fill-rule:nonzero;fill:rgb(100%,100%,100%);fill-opacity:1;" d="M 41.707031 12.828125 L 41.707031 15.324219 C 41.707031 16.09375 41.316406 16.480469 40.550781 16.480469 C 39.796875 16.480469 39.394531 16.09375 39.394531 15.324219 L 39.394531 7.394531 C 39.394531 6.628906 39.796875 6.238281 40.550781 6.238281 L 46.117188 6.238281 C 46.855469 6.238281 47.21875 6.617188 47.21875 7.34375 C 47.21875 8.082031 46.855469 8.457031 46.117188 8.457031 L 41.707031 8.457031 L 41.707031 10.609375 L 44.460938 10.609375 C 45.203125 10.609375 45.5625 10.984375 45.5625 11.722656 C 45.5625 12.449219 45.203125 12.828125 44.460938 12.828125 L 41.707031 12.828125 "/>
</g>
</svg>
