<?xml version="1.0" encoding="UTF-8"?>
<!DOCTYPE svg PUBLIC "-//W3C//DTD SVG 1.1//EN" "http://www.w3.org/Graphics/SVG/1.1/DTD/svg11.dtd">
<!-- Creator: CorelDRAW X7 -->
<svg xmlns="http://www.w3.org/2000/svg" xml:space="preserve" width="13.7795in" height="11.0236in" version="1.1" style="shape-rendering:geometricPrecision; text-rendering:geometricPrecision; image-rendering:optimizeQuality; fill-rule:evenodd; clip-rule:evenodd"
viewBox="0 0 13780 11024"
 xmlns:xlink="http://www.w3.org/1999/xlink">
 <defs>
  <style type="text/css">
   <![CDATA[
    .fil0 {fill:none}
    .fil12 {fill:#666666}
    .fil11 {fill:white}
    .fil1 {fill:url(#id2)}
    .fil7 {fill:url(#id3)}
    .fil8 {fill:url(#id4)}
    .fil5 {fill:url(#id5)}
    .fil4 {fill:url(#id6)}
    .fil2 {fill:url(#id7)}
    .fil3 {fill:url(#id8)}
    .fil6 {fill:url(#id9)}
    .fil9 {fill:url(#id10)}
    .fil10 {fill:url(#id11)}
   ]]>
  </style>
       <mask id="id0">
  <linearGradient id="id1" gradientUnits="userSpaceOnUse" x1="7267.26" y1="4570.2" x2="7239.99" y2="5094.17">
   <stop offset="0" style="stop-opacity:1; stop-color:white"/>
   <stop offset="1" style="stop-opacity:0; stop-color:white"/>
  </linearGradient>
        <rect style="fill:url(#id1)" x="6617" y="4392" width="1274" height="880"/>
       </mask>
  <linearGradient id="id2" gradientUnits="userSpaceOnUse" x1="1952.35" y1="5942.74" x2="2456.02" y2="5007.35">
   <stop offset="0" style="stop-opacity:1; stop-color:#002F71"/>
   <stop offset="1" style="stop-opacity:1; stop-color:#00A7F5"/>
  </linearGradient>
  <linearGradient id="id3" gradientUnits="userSpaceOnUse" xlink:href="#id2" x1="10503" y1="5821.54" x2="10869.7" y2="5140.67">
  </linearGradient>
  <linearGradient id="id4" gradientUnits="userSpaceOnUse" xlink:href="#id2" x1="11240.7" y1="5961.78" x2="11758.4" y2="5000.44">
  </linearGradient>
  <linearGradient id="id5" gradientUnits="userSpaceOnUse" xlink:href="#id2" x1="8522.87" y1="5928.07" x2="9004.22" y2="5034.15">
  </linearGradient>
  <linearGradient id="id6" gradientUnits="userSpaceOnUse" xlink:href="#id2" x1="5529.68" y1="5942.74" x2="6033.35" y2="5007.35">
  </linearGradient>
  <linearGradient id="id7" gradientUnits="userSpaceOnUse" xlink:href="#id2" x1="3092.36" y1="5960.04" x2="3615.48" y2="4988.54">
  </linearGradient>
  <linearGradient id="id8" gradientUnits="userSpaceOnUse" xlink:href="#id2" x1="4354.2" y1="5936.03" x2="4844.11" y2="5026.19">
  </linearGradient>
  <linearGradient id="id9" gradientUnits="userSpaceOnUse" xlink:href="#id2" x1="9639.38" y1="5933.45" x2="10126.5" y2="5028.76">
  </linearGradient>
  <radialGradient id="id10" gradientUnits="userSpaceOnUse" gradientTransform="matrix(0.999999 -0 -0 0.0926858 0 5543)" cx="7255.56" cy="6109.37" r="942.909" fx="7255.56" fy="6109.37">
   <stop offset="0" style="stop-opacity:1; stop-color:#6E6E6E"/>
   <stop offset="1" style="stop-opacity:1; stop-color:white"/>
  </radialGradient>
  <radialGradient id="id11" gradientUnits="userSpaceOnUse" gradientTransform="matrix(0.349191 -1.47436 1.47436 0.34919 -2533 14299)" cx="7482.36" cy="5020.66" r="643.138" fx="7482.36" fy="5020.66">
   <stop offset="0" style="stop-opacity:1; stop-color:#03AFFF"/>
   <stop offset="1" style="stop-opacity:1; stop-color:#085496"/>
  </radialGradient>
 </defs>
 <g id="Layer_x0020_1">
  <metadata id="CorelCorpID_0Corel-Layer"/>
  <rect class="fil0" width="13780" height="11024"/>
  <g id="_797976400">
   <g>
    <path class="fil1" d="M2258 5802c116,0 211,-46 285,-138l152 156c-121,135 -262,203 -426,203 -163,0 -297,-52 -403,-155 -105,-103 -158,-233 -158,-390 0,-157 54,-288 161,-393 108,-105 239,-158 395,-158 174,0 319,66 437,199l-147 166c-75,-93 -168,-139 -279,-139 -89,0 -165,29 -228,87 -64,58 -95,137 -95,235 0,99 30,178 89,237 60,60 132,90 217,90z"/>
    <path class="fil2" d="M3669 5475c0,-94 -30,-175 -91,-242 -60,-66 -135,-100 -223,-100 -89,0 -163,34 -224,100 -61,67 -91,148 -91,242 0,95 30,175 91,241 61,66 135,99 224,99 88,0 163,-33 223,-99 61,-66 91,-146 91,-241zm81 390c-108,104 -239,156 -396,156 -157,0 -289,-52 -396,-156 -107,-105 -160,-235 -160,-391 0,-155 53,-285 160,-390 107,-105 239,-157 396,-157 157,0 288,52 396,157 107,105 160,235 160,390 0,156 -53,286 -160,391z"/>
    <polygon class="fil3" points="4852,4951 5088,4951 5088,6011 4852,6011 4347,5347 4347,6011 4110,6011 4110,4951 4332,4951 4852,5633 "/>
    <path class="fil4" d="M5835 5802c117,0 212,-46 285,-138l152 156c-120,135 -262,203 -425,203 -164,0 -298,-52 -404,-155 -105,-103 -158,-233 -158,-390 0,-157 54,-288 162,-393 107,-105 239,-158 394,-158 174,0 320,66 437,199l-147 166c-75,-93 -168,-139 -279,-139 -89,0 -165,29 -228,87 -63,58 -95,137 -95,235 0,99 30,178 90,237 59,60 131,90 216,90z"/>
    <path class="fil5" d="M9160 5303c0,170 -67,279 -202,329l269 379 -291 0 -235 -338 -164 0 0 338 -237 0 0 -1060 402 0c165,0 282,28 353,84 70,55 105,145 105,268zm-450 165c81,0 136,-13 165,-39 29,-26 44,-68 44,-125 0,-57 -15,-96 -46,-118 -30,-21 -83,-32 -159,-32l-177 0 0 314 173 0z"/>
    <path class="fil6" d="M9777 4951c189,0 334,47 435,139 101,92 151,221 151,386 0,165 -49,295 -147,391 -99,96 -249,144 -451,144l-363 0 0 -1060 375 0zm12 851c108,0 191,-28 249,-82 58,-55 87,-134 87,-238 0,-104 -29,-184 -87,-240 -58,-56 -147,-85 -267,-85l-132 0 0 645 150 0z"/>
    <polygon class="fil7" points="10568,4951 10805,4951 10805,6011 10568,6011 "/>
    <path class="fil8" d="M11820 6011l-98 -229 -445 0 -98 229 -252 0 458 -1060 229 0 458 1060 -252 0zm-320 -744l-133 307 265 0 -132 -307z"/>
    <g>
     <path class="fil9" d="M7256 6031c466,0 844,35 844,78 0,44 -378,79 -844,79 -467,0 -845,-35 -845,-79 0,-43 378,-78 845,-78z"/>
     <g>
      <path class="fil10" d="M7256 4375c481,0 872,391 872,872 0,482 -391,873 -872,873 -482,0 -873,-391 -873,-873 0,-481 391,-872 873,-872z"/>
      <path class="fil11" style="mask:url(#id0)" d="M7254 4396c349,0 633,195 633,436 0,241 -284,436 -633,436 -350,0 -633,-195 -633,-436 0,-241 283,-436 633,-436z"/>
     </g>
     <g>
      <path class="fil11" d="M7797 5310c245,-10 245,-10 331,-22 0,14 0,14 -1,28 -87,20 -87,20 -331,37 -8,27 -30,47 -55,48 -33,2 -59,-27 -58,-66 1,-38 28,-69 61,-70 26,0 46,19 53,45zm-53 -12c16,0 29,15 29,34 -1,20 -14,36 -31,36 -17,1 -30,-14 -29,-34 0,-19 14,-36 31,-36z"/>
      <path class="fil11" d="M7954 5453c120,-28 120,-28 163,-57 -2,9 -3,18 -5,28l0 0c-45,34 -45,34 -162,66 -9,23 -26,42 -44,46 -24,5 -41,-18 -37,-52 3,-33 26,-63 50,-66 19,-2 32,13 35,35zm-38 -6c13,-2 21,11 19,28 -2,16 -13,31 -25,34 -13,1 -21,-10 -19,-28 1,-17 13,-32 25,-34z"/>
      <path class="fil11" d="M7772 5626c228,-56 228,-56 319,-122 -3,9 -6,19 -9,28l0 0c-92,71 -92,71 -316,130 -10,23 -33,42 -56,46 -31,5 -54,-16 -49,-48 4,-33 33,-63 65,-67 24,-3 42,11 46,33zm-50 -4c16,-2 27,9 25,26 -3,16 -18,31 -33,34 -16,2 -27,-9 -25,-26 2,-17 17,-32 33,-34z"/>
      <path class="fil11" d="M7902 5715c98,-49 98,-49 148,-103l0 0c-5,10 -9,19 -14,28 -49,54 -49,54 -143,103 -10,19 -28,36 -45,43 -23,8 -35,-5 -28,-30 7,-27 32,-54 55,-61 17,-5 28,3 27,20zm-33 3c11,-4 17,4 13,17 -4,13 -16,26 -27,30 -12,5 -18,-3 -14,-16 3,-13 16,-27 28,-31z"/>
      <path class="fil11" d="M7718 5871c175,-68 175,-68 272,-151l0 0c-6,10 -12,19 -18,28 -97,81 -97,81 -263,147 -11,16 -33,31 -54,37 -27,7 -45,-4 -39,-25 6,-23 34,-47 63,-53 22,-5 37,2 39,17zm-45 3c15,-3 24,3 20,15 -4,11 -18,22 -32,26 -14,3 -23,-3 -20,-14 3,-11 18,-23 32,-27z"/>
      <path class="fil11" d="M7821 5897c49,-33 49,-33 87,-69 -8,10 -17,20 -26,29 -33,29 -33,29 -74,56 -11,12 -29,26 -44,34 -19,10 -28,8 -18,-7 8,-15 34,-36 54,-46 16,-7 23,-6 21,3zm-30 12c11,-5 15,-3 10,4 -6,8 -18,18 -28,23 -10,5 -14,3 -9,-4 5,-8 17,-18 27,-23z"/>
      <path class="fil11" d="M7646 6015c81,-36 81,-36 147,-78l0 0c-13,9 -25,18 -38,27l0 0c-55,34 -55,34 -119,62 -11,8 -30,17 -48,24 -22,7 -36,7 -29,-2 7,-10 32,-25 57,-32 19,-6 31,-6 30,-1zm-37 10c13,-4 19,-2 15,2 -4,5 -17,12 -28,16 -13,4 -20,4 -16,-1 4,-5 17,-13 29,-17z"/>
      <path class="fil11" d="M7613 4450l0 0c-2,-1 -2,-1 -5,-2 1,1 -9,-2 -26,-9 -23,-8 -47,-18 -54,-22 -2,0 -3,-1 -1,-1l0 0c7,3 13,5 20,7l0 0c-1,0 -1,0 1,1 3,2 16,7 26,11 11,4 16,5 14,4l0 0c8,3 17,7 25,11z"/>
      <path class="fil11" d="M7793 4558l0 0c-10,-7 -10,-7 -21,-15 4,4 -3,2 -17,-6 -18,-10 -43,-27 -53,-37 -8,-7 -4,-6 9,2 29,17 56,36 82,56zm-67 -47c9,6 21,14 27,18 5,5 2,4 -7,-1 -9,-6 -22,-14 -27,-19 -5,-4 -2,-3 7,2z"/>
      <path class="fil11" d="M7674 4521c122,53 122,53 208,117 9,9 18,19 26,28 -90,-70 -91,-70 -225,-128 0,10 -13,14 -34,9 -27,-7 -55,-27 -61,-43 -6,-15 10,-21 35,-14 19,6 40,19 51,31zm-45 -19c13,4 27,13 31,21 3,8 -4,12 -17,8 -14,-3 -28,-13 -31,-21 -4,-8 4,-12 17,-8z"/>
      <path class="fil11" d="M7854 4654c71,44 71,44 118,93 6,9 12,18 18,27l0 0c-48,-51 -48,-51 -126,-97 2,13 -7,18 -24,11 -21,-8 -47,-32 -55,-53 -8,-21 2,-29 23,-20 16,8 34,24 46,39zm-38 -22c11,4 23,16 28,26 5,11 0,16 -11,11 -11,-4 -24,-16 -28,-27 -5,-11 1,-15 11,-10z"/>
      <path class="fil11" d="M7740 4704c199,68 199,68 296,151 5,9 9,18 14,27l0 0c-96,-79 -96,-79 -302,-147 -3,18 -19,29 -43,25 -31,-5 -59,-32 -65,-61 -5,-27 15,-43 45,-37 22,5 44,22 55,42zm-50 -20c15,3 29,17 32,31 3,14 -6,23 -22,20 -15,-3 -30,-17 -33,-31 -3,-14 7,-23 23,-20z"/>
      <path class="fil11" d="M7926 4870c108,44 108,44 156,92l0 0c3,10 6,19 9,29 -47,-46 -47,-46 -158,-88 -1,19 -13,32 -31,27 -24,-4 -49,-34 -54,-64 -5,-30 10,-49 33,-42 17,5 35,24 45,46zm-40 -22c12,4 24,19 27,33 3,16 -4,26 -16,23 -12,-3 -24,-18 -27,-33 -3,-16 4,-26 16,-23z"/>
      <path class="fil11" d="M7785 4980c240,42 240,42 327,91l0 0c2,9 3,18 5,28l0 0c-86,-42 -86,-42 -328,-78 -5,25 -25,41 -50,40 -32,-2 -61,-34 -64,-71 -2,-35 22,-61 54,-58 25,3 47,23 56,48zm-53 -18c16,2 30,18 32,36 1,19 -11,32 -27,31 -17,-1 -31,-18 -33,-36 -1,-19 11,-33 28,-31z"/>
      <path class="fil11" d="M7962 5151c123,14 123,14 165,28l0 0c1,9 1,19 1,28 -41,-9 -41,-9 -164,-16 -5,23 -20,40 -38,40 -25,0 -46,-29 -47,-65 -1,-35 18,-61 42,-59 19,2 35,20 41,44zm-39 -15c12,2 22,16 23,34 1,17 -8,32 -21,31 -12,0 -23,-15 -23,-34 -1,-18 9,-31 21,-31z"/>
      <path class="fil11" d="M6714 5184c-245,10 -245,10 -331,22 1,-15 1,-15 2,-29 86,-19 86,-19 330,-36 9,-26 30,-47 55,-48 33,-1 59,28 58,66 -1,38 -28,70 -61,70 -25,0 -46,-19 -53,-45zm53 12c-16,0 -29,-15 -29,-35 1,-19 15,-35 31,-36 17,0 30,15 30,35 -1,19 -15,36 -32,36z"/>
      <path class="fil11" d="M6557 5041c-119,27 -119,27 -163,57l0 0c2,-9 4,-19 6,-28 44,-34 44,-34 162,-66 8,-24 25,-43 43,-46 25,-5 41,18 38,51 -3,34 -27,64 -51,67 -18,2 -32,-13 -35,-35zm38 6c-12,1 -20,-11 -19,-27 2,-17 14,-32 26,-34 12,-3 21,10 19,26 -2,18 -14,33 -26,35z"/>
      <path class="fil11" d="M6740 4868c-229,56 -229,56 -320,122l0 0c3,-9 6,-19 9,-28 93,-71 93,-71 316,-130 11,-23 33,-42 57,-46 31,-5 53,16 49,48 -4,34 -34,64 -65,67 -25,3 -43,-11 -46,-33zm49 4c-15,2 -26,-9 -24,-26 3,-16 17,-31 33,-34 16,-2 27,10 25,26 -2,17 -17,32 -34,34z"/>
      <path class="fil11" d="M6609 4779c-98,49 -98,49 -147,103 4,-10 8,-19 13,-28l0 0c50,-54 50,-54 143,-103 11,-19 29,-37 46,-43 22,-8 35,5 28,30 -7,27 -32,54 -56,61 -17,6 -27,-3 -27,-20zm34 -3c-11,3 -17,-4 -14,-17 5,-13 16,-26 28,-31 11,-4 18,3 14,16 -4,14 -16,28 -28,32z"/>
      <path class="fil11" d="M6794 4624c-175,67 -175,67 -273,150 6,-10 12,-19 19,-28l0 0c97,-81 97,-81 262,-147 12,-16 33,-31 55,-37 27,-6 45,5 39,26 -6,22 -35,46 -63,52 -22,5 -37,-2 -39,-16zm44 -4c-14,3 -23,-3 -19,-15 3,-10 18,-22 32,-25 14,-4 23,2 20,13 -4,12 -18,24 -33,27z"/>
      <path class="fil11" d="M6692 4597c-50,33 -50,33 -88,68 8,-9 17,-19 26,-28 32,-29 33,-29 74,-57 11,-11 28,-25 44,-33 19,-10 27,-7 18,7 -9,16 -33,36 -54,45 -16,8 -24,7 -20,-2zm28 -12c-10,5 -14,3 -8,-5 5,-7 17,-17 27,-22 10,-5 14,-4 9,4 -5,8 -18,19 -28,23z"/>
      <path class="fil11" d="M6865 4479c-80,36 -80,36 -146,79 12,-10 25,-19 38,-28 55,-33 55,-33 118,-62 12,-8 30,-17 48,-23 24,-8 37,-7 30,1 -6,11 -32,25 -58,33 -18,6 -30,5 -30,0zm37 -10c-12,4 -18,3 -14,-2 4,-5 17,-12 29,-16 11,-4 19,-3 14,2 -3,5 -17,12 -29,16z"/>
      <path class="fil11" d="M6898 6045c3,1 3,1 7,3 -2,-2 8,1 26,8 22,7 46,17 53,21 2,1 2,2 1,2 -7,-3 -13,-5 -20,-7l0 0c1,0 1,0 0,-1 -4,-2 -16,-7 -28,-11 -10,-4 -15,-5 -13,-4 -9,-4 -17,-7 -26,-11z"/>
      <path class="fil11" d="M6719 5937c10,8 10,8 21,15 -4,-4 2,-2 16,6 20,10 44,27 53,37 9,7 5,6 -8,-1l0 0c-29,-18 -56,-36 -82,-57zm66 47c-9,-6 -20,-14 -26,-18 -6,-5 -3,-4 7,1 9,6 21,14 26,19 6,4 2,3 -7,-2z"/>
      <path class="fil11" d="M6838 5975c-122,-54 -122,-54 -209,-118 -8,-9 -17,-18 -25,-28 90,70 90,70 224,128 0,-10 14,-14 35,-8 26,6 54,26 61,42 6,15 -10,21 -35,14 -19,-6 -39,-18 -51,-30zm44 18c-13,-4 -26,-13 -30,-21 -4,-8 4,-12 17,-8 13,3 27,13 32,22 3,8 -5,11 -19,7z"/>
      <path class="fil11" d="M6658 5841c-71,-44 -71,-44 -118,-92l0 0c-7,-9 -13,-19 -19,-28 49,51 49,51 126,97 -2,-13 7,-18 24,-11 22,8 48,33 56,54 8,19 -2,28 -24,18 -16,-7 -34,-23 -45,-38zm37 22c-10,-4 -22,-16 -27,-26 -5,-11 0,-16 10,-11 12,4 25,17 29,28 4,10 -1,14 -12,9z"/>
      <path class="fil11" d="M6772 5791c-200,-68 -200,-68 -297,-151l0 0c-5,-9 -9,-18 -13,-27 96,80 96,80 302,147 2,-18 19,-29 42,-25 31,5 60,33 65,61 5,26 -14,43 -44,37 -22,-5 -44,-22 -55,-42zm50 20c-15,-3 -29,-17 -33,-30 -3,-15 7,-24 22,-21 16,3 31,17 33,31 3,14 -7,23 -22,20z"/>
      <path class="fil11" d="M6586 5626c-109,-45 -109,-45 -157,-93 -3,-10 -6,-19 -9,-29l0 0c47,46 47,46 159,89 1,-20 12,-33 31,-28 23,4 48,34 53,64 6,31 -9,48 -32,43 -18,-6 -36,-25 -45,-46zm39 21c-12,-4 -23,-18 -27,-33 -2,-15 4,-25 16,-23 12,3 25,18 28,34 3,15 -5,25 -17,22z"/>
      <path class="fil11" d="M6726 5515c-239,-42 -239,-42 -326,-90 -2,-10 -4,-19 -6,-28l0 0c0,0 0,0 0,0 86,41 86,41 328,77 6,-25 25,-41 50,-39 33,2 62,33 64,70 3,35 -21,62 -53,58 -25,-3 -47,-23 -57,-48zm54 18c-17,-2 -31,-18 -33,-36 -1,-18 11,-32 27,-31 17,1 32,18 33,36 2,19 -11,32 -27,31z"/>
      <path class="fil11" d="M6549 5344c-123,-13 -123,-13 -165,-27 0,-9 -1,-19 -1,-28 41,8 41,8 164,16 5,-23 20,-41 38,-41 25,0 46,29 47,65 2,35 -18,62 -42,60 -19,-2 -35,-21 -41,-45zm39 15c-12,-1 -22,-16 -23,-34 -1,-17 9,-31 21,-30 12,-1 23,15 24,33 0,18 -9,32 -22,31z"/>
     </g>
     <path class="fil11" d="M7364 5274l39 234 -147 0 -148 0 39 -234c-53,-35 -88,-96 -88,-164 0,-109 88,-197 197,-197 108,0 196,88 196,197 0,68 -35,129 -88,164z"/>
    </g>
   </g>
   <path class="fil12" d="M2085 6498c-13,5 -30,7 -48,7 -41,0 -67,-23 -67,-64 0,-36 15,-62 36,-79 14,-10 33,-16 54,-16 22,0 40,5 46,7l18 -54c-8,-5 -30,-11 -59,-11 -36,0 -68,8 -96,25 -42,26 -72,71 -72,136 0,71 50,114 122,114 33,0 57,-5 71,-11l-5 -54zm37 -134l39 174c0,5 0,7 -2,10 -6,10 -15,20 -28,29 -11,6 -23,11 -32,13l15 58c13,-1 41,-11 64,-33 26,-23 51,-59 78,-115l68 -136 -71 0 -29 76c-8,21 -12,33 -16,45l0 0c-2,-12 -4,-25 -6,-44l-9 -77 -71 0zm246 -86l-38 191c-3,13 -5,25 -5,38 0,34 22,56 73,56 91,0 132,-71 132,-136 0,-35 -19,-67 -59,-67 -23,0 -43,9 -56,23l-1 0 22 -105 -68 0zm32 182c5,-29 22,-45 38,-45 14,0 21,11 21,27 0,30 -21,71 -46,71 -11,0 -18,-7 -18,-19 -1,-7 1,-14 2,-20l3 -14zm313 39c-17,8 -35,12 -55,12 -15,0 -27,-4 -35,-10 -4,-3 -6,-9 -7,-13 80,2 125,-17 125,-66 0,-40 -32,-62 -72,-62 -74,0 -116,60 -116,119 0,54 31,84 88,84 19,0 50,-3 76,-15l-4 -49zm-35 -77c0,12 -14,18 -55,17 2,-12 13,-30 37,-30 12,0 18,6 18,12l0 1zm141 137l12 -67c7,-35 20,-66 60,-66 3,0 7,0 9,0l13 -66c-4,0 -7,0 -11,0 -27,0 -49,18 -63,43l-1 0c1,-13 2,-26 3,-39l-58 0c-2,17 -5,52 -10,83l-22 112 68 0zm154 -12c13,9 38,15 64,16 56,1 96,-24 96,-71 0,-29 -26,-43 -47,-53 -15,-7 -22,-13 -22,-19 0,-7 9,-11 21,-11 18,0 33,4 41,8l16 -47c-10,-5 -29,-10 -54,-10 -54,0 -92,27 -92,70 0,26 22,42 44,53 17,7 23,13 23,20 0,6 -6,11 -19,11 -20,1 -43,-8 -55,-14l-16 47zm347 -48c-17,8 -35,12 -55,12 -15,0 -27,-4 -35,-10 -4,-3 -6,-9 -7,-13 80,2 125,-17 125,-66 0,-40 -32,-62 -72,-62 -74,0 -116,60 -116,119 0,54 31,84 88,84 19,0 50,-3 76,-15l-4 -49zm-35 -77c0,12 -14,18 -55,17 2,-12 13,-30 37,-30 12,0 18,6 18,12l0 1zm223 80c-10,4 -20,7 -35,7 -17,0 -34,-10 -34,-35 0,-33 22,-61 59,-61 10,0 17,2 23,4l16 -51c-10,-4 -23,-6 -39,-6 -76,0 -130,51 -130,121 0,54 38,82 85,82 22,0 41,-3 54,-10l1 -51zm178 -138l-16 86c-7,37 -22,59 -40,59 -10,0 -14,-9 -14,-18 0,-7 1,-16 2,-24l20 -103 -68 0 -20 108c-3,14 -4,26 -4,37 0,34 16,54 49,54 23,0 46,-9 67,-34l0 0 -3 30 59 0c4,-18 7,-41 12,-67l24 -128 -68 0zm143 195l12 -67c7,-35 20,-66 60,-66 3,0 6,0 9,0l13 -66c-4,0 -7,0 -11,0 -27,0 -49,18 -63,43l-1 0c1,-13 2,-26 3,-39l-59 0c-2,17 -4,52 -9,83l-22 112 68 0zm155 0l36 -195 -67 0 -37 195 68 0zm9 -214c21,0 39,-13 39,-37 0,-19 -14,-31 -33,-31 -19,0 -37,14 -37,36 0,20 13,32 31,32l0 0zm85 -17l-7 36 -24 0 -10 51 24 0 -13 68c-3,16 -4,26 -4,36 0,26 18,44 55,44 13,0 28,-1 37,-5l8 -53c-5,1 -11,1 -15,1 -13,0 -16,-7 -16,-15 0,-6 1,-16 3,-22l11 -54 39 0 10 -51 -39 0 10 -55 -69 19zm110 36l38 174c1,5 1,7 -1,10 -6,10 -16,20 -29,29 -10,6 -22,11 -32,13l15 58c13,-1 42,-11 65,-33 25,-23 50,-59 78,-115l67 -136 -70 0 -30 76c-7,21 -11,33 -15,45l-1 0c-1,-12 -3,-25 -5,-44l-9 -77 -71 0zm414 138c-10,4 -21,7 -36,7 -16,0 -34,-10 -34,-35 0,-33 23,-61 59,-61 10,0 17,2 24,4l16 -51c-10,-4 -23,-6 -39,-6 -76,0 -130,51 -130,121 0,54 37,82 84,82 22,0 41,-3 55,-10l1 -51zm191 -214c-40,0 -75,14 -101,39 -31,29 -48,75 -48,124 0,64 42,112 111,112 41,0 76,-14 101,-39 31,-29 48,-75 48,-124 0,-66 -41,-112 -111,-112zm-8 56c35,0 47,26 47,58 0,28 -11,69 -30,89 -10,10 -23,16 -37,16 -33,0 -50,-23 -50,-58 0,-30 12,-68 31,-88 11,-10 24,-17 39,-17zm193 215l15 -83c6,-37 22,-62 39,-62 10,0 14,8 14,20 0,6 -1,13 -2,21l-19 104 64 0 16 -83c7,-38 21,-62 38,-62 10,0 16,8 16,18 0,7 -2,15 -3,23l-19 104 65 0 21 -113c2,-9 3,-26 3,-33 0,-32 -14,-53 -47,-53 -24,0 -48,10 -65,34 -2,-14 -15,-34 -47,-34 -24,0 -47,9 -65,34l-1 0 3 -30 -58 0c-2,18 -5,41 -10,66l-24 129 66 0zm320 78l15 -82 1 0c7,5 20,8 34,8 69,0 112,-61 112,-128 0,-41 -22,-75 -64,-75 -22,0 -44,10 -59,29l-1 0 3 -27 -60 0c-2,21 -7,57 -11,80l-38 195 68 0zm32 -170c5,-31 20,-52 39,-52 14,0 20,12 20,25 0,33 -19,73 -44,73 -9,0 -16,-4 -21,-9l6 -37zm315 32c-17,8 -36,12 -56,12 -15,0 -27,-4 -35,-10 -3,-3 -6,-9 -7,-13 81,2 125,-17 125,-66 0,-40 -32,-62 -72,-62 -74,0 -116,60 -116,119 0,54 31,84 88,84 20,0 50,-3 76,-15l-3 -49zm-36 -77c0,12 -14,18 -55,17 2,-12 14,-30 38,-30 11,0 17,6 17,12l0 1zm124 -94l-7 36 -23 0 -10 51 24 0 -14 68c-3,16 -4,26 -4,36 0,26 18,44 55,44 13,0 29,-1 37,-5l9 -53c-6,1 -11,1 -16,1 -12,0 -16,-7 -16,-15 0,-6 2,-16 3,-22l11 -54 40 0 10 -51 -40 0 10 -55 -69 19zm260 171c-17,8 -36,12 -56,12 -15,0 -27,-4 -34,-10 -4,-3 -7,-9 -7,-13 80,2 124,-17 124,-66 0,-40 -32,-62 -72,-62 -73,0 -116,60 -116,119 0,54 31,84 88,84 20,0 50,-3 76,-15l-3 -49zm-36 -77c0,12 -14,18 -55,17 2,-12 14,-30 38,-30 11,0 17,6 17,12l0 1zm139 137l14 -74c8,-44 16,-87 18,-113l2 0c7,36 15,62 26,100l27 87 71 0 50 -267 -63 0 -14 78c-8,40 -12,72 -13,101l-1 0c-7,-32 -14,-63 -25,-98l-24 -81 -80 0 -50 267 62 0zm409 -61c-13,5 -30,7 -48,7 -41,0 -67,-23 -67,-64 0,-36 15,-62 36,-79 14,-10 33,-16 54,-16 22,0 40,5 46,7l18 -54c-8,-5 -30,-11 -59,-11 -37,0 -69,8 -96,25 -43,26 -72,71 -72,136 0,71 50,114 122,114 33,0 57,-5 71,-11l-5 -54zm197 1c-17,8 -36,12 -56,12 -15,0 -27,-4 -34,-10 -4,-3 -7,-9 -7,-13 80,2 124,-17 124,-66 0,-40 -32,-62 -72,-62 -73,0 -116,60 -116,119 0,54 31,84 88,84 20,0 50,-3 76,-15l-3 -49zm-36 -77c0,12 -14,18 -55,17 2,-12 14,-30 38,-30 11,0 17,6 17,12l0 1zm221 137l27 -144 36 0 10 -51 -37 0 2 -9c3,-14 14,-26 29,-26 7,0 13,1 18,3l11 -54c-7,-2 -18,-4 -32,-4 -20,0 -42,5 -59,19 -20,16 -29,40 -33,61l-2 10 -25 0 -9 51 24 0 -27 144 67 0zm229 -271c-40,0 -75,14 -100,39 -31,29 -49,75 -49,124 0,64 42,112 111,112 41,0 76,-14 102,-39 30,-29 47,-75 47,-124 0,-66 -41,-112 -111,-112zm-8 56c35,0 47,26 47,58 0,28 -11,69 -30,89 -10,10 -23,16 -37,16 -33,0 -49,-23 -49,-58 0,-30 11,-68 30,-88 11,-10 24,-17 39,-17zm195 215l12 -67c7,-35 21,-66 61,-66 3,0 6,0 8,0l14 -66c-4,0 -8,0 -12,0 -27,0 -48,18 -62,43l-2 0c2,-13 2,-26 3,-39l-58 0c-2,17 -4,52 -10,83l-21 112 67 0zm164 0l67 0 19 -101 12 0c21,0 31,8 33,38 3,34 6,55 8,63l70 0c-6,-11 -8,-50 -11,-77 -3,-22 -9,-39 -24,-47l1 -1c34,-12 58,-34 58,-74 0,-28 -14,-45 -33,-56 -21,-11 -48,-14 -73,-14 -30,0 -59,3 -77,8l-50 261zm107 -214c5,-1 11,-2 20,-2 20,0 36,9 36,27 0,24 -20,39 -47,39l-21 0 12 -64zm294 154c-17,8 -36,12 -56,12 -15,0 -27,-4 -35,-10 -3,-3 -6,-9 -7,-13 81,2 125,-17 125,-66 0,-40 -32,-62 -72,-62 -74,0 -116,60 -116,119 0,54 31,84 88,84 20,0 50,-3 76,-15l-3 -49zm-36 -77c0,12 -14,18 -55,17 2,-12 14,-30 38,-30 11,0 17,6 17,12l0 1zm68 125c12,9 38,15 64,16 55,1 95,-24 95,-71 0,-29 -25,-43 -46,-53 -15,-7 -23,-13 -23,-19 0,-7 9,-11 21,-11 19,0 33,4 42,8l15 -47c-10,-5 -29,-10 -54,-10 -54,0 -91,27 -91,70 0,26 21,42 43,53 17,7 23,13 23,20 0,6 -6,11 -19,11 -20,1 -43,-8 -55,-14l-15 47zm347 -48c-17,8 -36,12 -56,12 -15,0 -27,-4 -35,-10 -3,-3 -6,-9 -7,-13 81,2 125,-17 125,-66 0,-40 -32,-62 -72,-62 -74,0 -116,60 -116,119 0,54 31,84 88,84 20,0 50,-3 76,-15l-3 -49zm-36 -77c0,12 -14,18 -55,17 2,-12 14,-30 38,-30 11,0 17,6 17,12l0 1zm262 137c-1,-26 4,-65 8,-86l20 -102c-17,-6 -44,-11 -69,-11 -100,0 -141,70 -141,134 0,42 25,69 60,69 20,0 45,-9 61,-38l1 0c0,11 -1,23 -2,34l62 0zm-55 -108c-9,46 -25,58 -37,58 -12,0 -20,-10 -20,-28 0,-28 21,-70 52,-70 4,0 8,0 13,1l-8 39zm161 108l12 -67c7,-35 20,-66 60,-66 3,0 7,0 9,0l13 -66c-4,0 -7,0 -11,0 -27,0 -49,18 -63,43l-1 0c1,-13 2,-26 3,-39l-58 0c-2,17 -5,52 -10,83l-22 112 68 0zm235 -57c-9,4 -20,7 -35,7 -17,0 -34,-10 -34,-35 0,-33 22,-61 59,-61 10,0 17,2 24,4l15 -51c-10,-4 -23,-6 -38,-6 -76,0 -130,51 -130,121 0,54 37,82 84,82 22,0 41,-3 55,-10l0 -51zm94 57l16 -86c7,-37 22,-59 40,-59 11,0 15,7 15,18 0,7 -1,15 -2,23l-20 104 67 0 21 -110c2,-12 4,-27 4,-36 0,-32 -16,-53 -50,-53 -23,0 -42,10 -58,25l-1 0 21 -107 -68 0 -53 281 68 0zm421 0c-1,-26 4,-65 8,-86l20 -102c-17,-6 -44,-11 -69,-11 -100,0 -141,70 -141,134 0,42 25,69 60,69 20,0 45,-9 61,-38l1 0c0,11 -1,23 -2,34l62 0zm-55 -108c-9,46 -25,58 -37,58 -12,0 -20,-10 -20,-28 0,-28 21,-70 52,-70 4,0 8,0 13,1l-8 39zm161 108l15 -83c8,-41 25,-62 41,-62 12,0 15,8 15,19 0,6 -1,14 -2,20l-20 106 68 0 21 -113c1,-9 3,-24 3,-33 0,-31 -15,-53 -50,-53 -25,0 -48,9 -66,34l-1 0 3 -30 -59 0c-3,18 -6,41 -11,66l-25 129 68 0zm164 -4c11,2 41,6 76,6 61,0 100,-11 131,-35 32,-25 55,-68 55,-121 0,-42 -15,-70 -39,-88 -24,-19 -57,-27 -97,-27 -27,0 -53,2 -77,7l-49 258zm108 -209c4,-1 10,-2 19,-2 39,0 62,21 62,61 0,29 -8,53 -24,72 -15,19 -41,29 -67,29 -10,0 -16,-1 -21,-1l31 -159zm288 -54l-50 267 67 0 51 -267 -68 0zm131 267l16 -83c7,-41 24,-62 40,-62 12,0 15,8 15,19 0,6 -1,14 -2,20l-20 106 68 0 21 -113c2,-9 3,-24 3,-33 0,-31 -14,-53 -50,-53 -24,0 -47,9 -66,34l-1 0 3 -30 -59 0c-3,18 -6,41 -11,66l-24 129 67 0zm228 0l15 -83c8,-41 25,-62 41,-62 11,0 15,8 15,19 0,6 -1,14 -2,20l-20 106 67 0 22 -113c1,-9 3,-24 3,-33 0,-31 -15,-53 -50,-53 -25,0 -48,9 -66,34l-1 0 3 -30 -60 0c-2,18 -6,41 -11,66l-24 129 68 0zm288 -199c-72,0 -120,54 -120,123 0,50 36,80 85,80 68,0 120,-48 120,-123 0,-46 -33,-80 -85,-80zm-9 51c18,0 24,13 24,30 0,27 -12,71 -40,71 -16,0 -25,-12 -25,-31 0,-23 12,-70 41,-70zm119 -47l32 195 69 0 108 -195 -75 0 -31 74c-10,25 -17,40 -22,56l-1 0c-2,-16 -4,-31 -5,-55l-6 -75 -69 0zm352 132l3 63 72 0 -29 -267 -88 0 -127 267 73 0 26 -63 70 0zm-51 -51l21 -49c7,-14 14,-37 21,-53l1 0c1,16 2,38 3,53l3 49 -49 0zm198 -117l-7 36 -24 0 -9 51 23 0 -13 68c-3,16 -4,26 -4,36 0,26 18,44 55,44 13,0 29,-1 37,-5l9 -53c-6,1 -11,1 -16,1 -12,0 -16,-7 -16,-15 0,-6 2,-16 3,-22l11 -54 39 0 10 -51 -39 0 10 -55 -69 19zm161 231l36 -195 -67 0 -37 195 68 0zm10 -214c20,0 38,-13 38,-37 0,-19 -14,-31 -32,-31 -20,0 -38,14 -38,36 0,20 13,32 31,32l1 0zm161 15c-71,0 -120,54 -120,123 0,50 36,80 86,80 68,0 119,-48 119,-123 0,-46 -33,-80 -85,-80zm-9 51c18,0 25,13 25,30 0,27 -13,71 -41,71 -16,0 -25,-12 -25,-31 0,-23 12,-70 41,-70zm176 148l15 -83c8,-41 25,-62 41,-62 12,0 15,8 15,19 0,6 -1,14 -2,20l-20 106 68 0 21 -113c1,-9 3,-24 3,-33 0,-31 -15,-53 -50,-53 -25,0 -47,9 -66,34l-1 0 3 -30 -59 0c-3,18 -6,41 -11,66l-25 129 68 0z"/>
  </g>
 </g>
</svg>
