<?xml version="1.0" encoding="UTF-8" standalone="no"?>
<!-- Created with Inkscape (http://www.inkscape.org/) -->

<svg
   xmlns:dc="http://purl.org/dc/elements/1.1/"
   xmlns:cc="http://creativecommons.org/ns#"
   xmlns:rdf="http://www.w3.org/1999/02/22-rdf-syntax-ns#"
   xmlns:svg="http://www.w3.org/2000/svg"
   xmlns="http://www.w3.org/2000/svg"
   xmlns:sodipodi="http://sodipodi.sourceforge.net/DTD/sodipodi-0.dtd"
   xmlns:inkscape="http://www.inkscape.org/namespaces/inkscape"
   width="205.36557mm"
   height="82.810806mm"
   viewBox="0 0 727.67332 293.42412"
   id="svg2"
   version="1.1"
   inkscape:version="0.91 r13725"
   sodipodi:docname="logo_ddosdb.svg">
  <defs
     id="defs4" />
  <sodipodi:namedview
     id="base"
     pagecolor="#ffffff"
     bordercolor="#666666"
     borderopacity="1.0"
     inkscape:pageopacity="0.0"
     inkscape:pageshadow="2"
     inkscape:zoom="1.763154"
     inkscape:cx="273.09018"
     inkscape:cy="146.71212"
     inkscape:document-units="px"
     inkscape:current-layer="layer1"
     showgrid="false"
     fit-margin-top="0"
     fit-margin-left="0"
     fit-margin-right="0"
     fit-margin-bottom="0"
     inkscape:window-width="1721"
     inkscape:window-height="972"
     inkscape:window-x="0"
     inkscape:window-y="0"
     inkscape:window-maximized="0" />
  <metadata
     id="metadata7">
    <rdf:RDF>
      <cc:Work
         rdf:about="">
        <dc:format>image/svg+xml</dc:format>
        <dc:type
           rdf:resource="http://purl.org/dc/dcmitype/StillImage" />
        <dc:title />
      </cc:Work>
    </rdf:RDF>
  </metadata>
  <g
     inkscape:label="Layer 1"
     inkscape:groupmode="layer"
     id="layer1"
     transform="translate(777.69073,185.31923)">
    <text
       xml:space="preserve"
       style="font-style:normal;font-weight:normal;font-size:111.94644928px;line-height:125%;font-family:sans-serif;letter-spacing:0px;word-spacing:0px;fill:#000000;fill-opacity:1;stroke:none;stroke-width:1px;stroke-linecap:butt;stroke-linejoin:miter;stroke-opacity:1"
       x="1161.1093"
       y="2471.5381"
       id="text7278"
       sodipodi:linespacing="125%"
       inkscape:export-xdpi="90"
       inkscape:export-ydpi="90"><tspan
         sodipodi:role="line"
         id="tspan7280"
         x="1161.1093"
         y="2471.5381" /></text>
    <text
       xml:space="preserve"
       style="font-style:normal;font-weight:normal;font-size:111.94644928px;line-height:125%;font-family:sans-serif;letter-spacing:0px;word-spacing:0px;fill:#000000;fill-opacity:1;stroke:none;stroke-width:1px;stroke-linecap:butt;stroke-linejoin:miter;stroke-opacity:1"
       x="1198.8037"
       y="2541.186"
       id="text7282"
       sodipodi:linespacing="125%"
       inkscape:export-xdpi="90"
       inkscape:export-ydpi="90"><tspan
         sodipodi:role="line"
         id="tspan7284"
         x="1198.8037"
         y="2541.186" /></text>
    <g
       style="font-style:normal;font-weight:normal;font-size:187.5px;line-height:125%;font-family:sans-serif;letter-spacing:-0.02px;word-spacing:0px;fill:#000000;fill-opacity:1;stroke:none;stroke-width:1px;stroke-linecap:butt;stroke-linejoin:miter;stroke-opacity:1"
       id="text4198">
      <path
         d="m -777.69073,-184.22066 46.69189,0 q 27.09961,0.18311 40.64941,22.52198 4.8523,7.50732 6.13404,15.74707 1.00708,8.23974 1.00708,28.4729 0,21.514889 -1.5564,30.029293 -0.73242,4.302978 -2.19727,7.69043 -1.55639,3.295898 -3.75366,6.866455 -5.85937,9.429931 -16.29638,15.563964 -10.34546,6.591797 -25.36011,6.591797 l -45.3186,0 0,-133.483889 z m 20.23315,114.349368 24.16992,0 q 17.02881,0 24.71924,-11.627197 3.38745,-4.302979 4.30298,-10.894776 0.82397,-6.500244 0.82397,-24.353025 0,-17.39502 -0.82397,-24.90235 -1.09863,-7.50732 -5.21851,-12.17651 -8.42285,-11.6272 -23.80371,-11.26099 l -24.16992,0 0,95.214848 z"
         style="font-style:normal;font-variant:normal;font-weight:bold;font-stretch:normal;font-family:'DIN Alternate';-inkscape-font-specification:'DIN Alternate Bold';letter-spacing:0px;fill:#000000;fill-opacity:1"
         id="path4241" />
      <path
         d="m -659.77081,-184.22066 46.69189,0 q 27.09961,0.18311 40.64942,22.52198 4.85229,7.50732 6.13403,15.74707 1.00708,8.23974 1.00708,28.4729 0,21.514889 -1.5564,30.029293 -0.73242,4.302978 -2.19726,7.69043 -1.5564,3.295898 -3.75367,6.866455 -5.85937,9.429931 -16.29638,15.563964 -10.34546,6.591797 -25.36011,6.591797 l -45.3186,0 0,-133.483889 z m 20.23315,114.349368 24.16992,0 q 17.02881,0 24.71924,-11.627197 3.38745,-4.302979 4.30298,-10.894776 0.82397,-6.500244 0.82397,-24.353025 0,-17.39502 -0.82397,-24.90235 -1.09863,-7.50732 -5.21851,-12.17651 -8.42285,-11.6272 -23.80371,-11.26099 l -24.16992,0 0,95.214848 z"
         style="font-style:normal;font-variant:normal;font-weight:bold;font-stretch:normal;font-family:'DIN Alternate';-inkscape-font-specification:'DIN Alternate Bold';letter-spacing:0px;fill:#000000;fill-opacity:1"
         id="path4243" />
      <path
         d="m -548.25958,-98.344193 q 0,-15.014647 2.47192,-23.071287 2.56348,-7.87354 7.87354,-13.27515 3.93676,-4.76074 10.98632,-8.5144 6.95801,-3.57056 17.85279,-3.75366 11.26098,0.1831 18.21899,3.75366 6.86646,3.75366 10.62012,8.5144 5.67627,5.40161 8.05664,13.27515 2.28882,8.05664 2.28882,23.071287 0,15.014649 -2.28882,22.888184 -2.38037,7.873535 -8.05664,13.641358 -1.83106,2.105712 -4.48608,4.119873 -2.38038,2.288818 -6.13404,3.936767 -6.95801,3.936768 -18.21899,4.119873 -10.89478,-0.183105 -17.85279,-4.119873 -7.04956,-3.570557 -10.98632,-8.05664 -5.31006,-5.767823 -7.87354,-13.641358 -2.47192,-7.873535 -2.47192,-22.888184 z m 59.23462,0.183106 q 0,-10.162353 -0.91553,-14.831543 -0.91553,-4.48608 -3.75366,-7.87354 -2.10572,-3.20434 -6.22559,-5.0354 -3.93677,-1.9226 -9.15527,-1.9226 -4.8523,0 -8.97217,1.9226 -3.93677,1.83106 -6.40869,5.0354 -2.47193,3.38746 -3.57056,7.87354 -1.09863,4.66919 -1.09863,14.648437 0,9.887696 1.09863,14.465333 1.09863,4.669189 3.57056,8.239746 2.47192,2.746582 6.40869,4.852295 4.11987,2.01416 8.97217,2.01416 5.2185,0 9.15527,-2.01416 4.11987,-2.105713 6.22559,-4.852295 2.83813,-3.570557 3.75366,-8.239746 0.91553,-4.577637 0.91553,-14.282227 z"
         style="font-style:normal;font-variant:normal;font-weight:bold;font-stretch:normal;font-family:'DIN Alternate';-inkscape-font-specification:'DIN Alternate Bold';letter-spacing:0px;fill:#000000;fill-opacity:1"
         id="path4245" />
      <path
         d="m -446.45294,-83.146439 q 15.93017,13.092041 37.90283,13.275147 26.00098,-0.366211 26.36719,-18.585205 0.1831,-14.923093 -17.39502,-17.944333 -8.05664,-1.09864 -17.66968,-2.47193 -17.21191,-2.83813 -26.18408,-12.72583 -9.24683,-10.16235 -9.24683,-24.71924 0,-17.48657 11.6272,-28.19824 11.26099,-10.62011 31.9519,-10.80322 24.90235,0.54932 43.30445,13.82446 l -11.26099,16.6626 0,0 q -15.01465,-9.88769 -33.05054,-10.25391 -9.33838,0 -15.56396,4.66919 -6.50025,4.8523 -6.68335,14.46534 0,5.76782 4.48608,10.43701 4.48609,4.76074 14.37378,6.59179 5.49317,0.91553 15.01465,2.10572 18.76831,2.56347 27.74048,13.45825 8.88061,10.71167 8.88061,24.902343 -1.00708,38.269043 -46.875,38.818359 -29.66308,0 -50.99487,-18.310547 l 13.27515,-15.197754 0,0 z"
         style="font-style:normal;font-variant:normal;font-weight:bold;font-stretch:normal;font-family:'DIN Alternate';-inkscape-font-specification:'DIN Alternate Bold';letter-spacing:0px;fill:#000000;fill-opacity:1"
         id="path4247" />
    </g>
    <g
       inkscape:export-ydpi="90"
       inkscape:export-xdpi="90"
       inkscape:export-filename="/Users/santannajj/Desktop/a.png"
       transform="translate(-1214.0059,-337.85863)"
       style="stroke:#000000"
       id="g4202">
      <path
         d="m 1161.4885,223.25381 a 31.246111,31.045185 0 0 1 -31.1133,31.04491 31.246111,31.045185 0 0 1 -31.3778,-30.78103 31.246111,31.045185 0 0 1 30.8467,-31.30654 31.246111,31.045185 0 0 1 31.6399,30.51494"
         sodipodi:open="true"
         sodipodi:end="6.2661858"
         sodipodi:start="0"
         sodipodi:ry="31.045185"
         sodipodi:rx="31.246111"
         sodipodi:cy="223.25381"
         sodipodi:cx="1130.2424"
         sodipodi:type="arc"
         id="path4204"
         style="fill:none;fill-opacity:1;stroke:#000000;stroke-width:5.00000048;stroke-miterlimit:4;stroke-dasharray:none;stroke-dashoffset:0;stroke-opacity:1"
         inkscape:export-filename="/Users/santannajj/Desktop/a.png"
         inkscape:export-xdpi="90"
         inkscape:export-ydpi="90" />
      <path
         d="m 1003.9609,375.50919 a 49.768734,48.563213 0 0 1 -49.55719,48.56277 49.768734,48.563213 0 0 1 -49.97845,-48.15 49.768734,48.563213 0 0 1 49.13242,-48.97204 49.768734,48.563213 0 0 1 50.39602,47.73375"
         sodipodi:open="true"
         sodipodi:end="6.2661858"
         sodipodi:start="0"
         sodipodi:ry="48.563213"
         sodipodi:rx="49.768734"
         sodipodi:cy="375.50919"
         sodipodi:cx="954.1922"
         sodipodi:type="arc"
         id="path4206"
         style="fill:none;fill-opacity:1;stroke:#000000;stroke-width:10.00000095;stroke-miterlimit:4;stroke-dasharray:none;stroke-dashoffset:0;stroke-opacity:1"
         inkscape:export-filename="/Users/santannajj/Desktop/a.png"
         inkscape:export-xdpi="90"
         inkscape:export-ydpi="90" />
      <path
         style="fill:none;fill-rule:evenodd;stroke:#000000;stroke-width:5.00000048;stroke-linecap:butt;stroke-linejoin:miter;stroke-miterlimit:4;stroke-dasharray:10.00000119, 5.0000006;stroke-dashoffset:0;stroke-opacity:1"
         d="m 1004.8285,361.04803 c 9.7792,-3.34096 41.0743,-30.36209 41.0743,-30.36209"
         id="path4208"
         inkscape:connector-curvature="0"
         sodipodi:nodetypes="cc"
         inkscape:export-filename="/Users/santannajj/Desktop/a.png"
         inkscape:export-xdpi="90"
         inkscape:export-ydpi="90" />
      <path
         style="fill:none;fill-rule:evenodd;stroke:#000000;stroke-width:10.00000095;stroke-linecap:butt;stroke-linejoin:miter;stroke-miterlimit:4;stroke-dasharray:none;stroke-opacity:1"
         d="m 954.19215,328.09748 0,-114.52338"
         id="path4210"
         inkscape:connector-curvature="0"
         inkscape:export-filename="/Users/santannajj/Desktop/a.png"
         inkscape:export-xdpi="90"
         inkscape:export-ydpi="90" />
      <path
         style="fill:none;fill-opacity:1;stroke:#000000;stroke-width:5.00000048;stroke-miterlimit:4;stroke-dasharray:none;stroke-dashoffset:0;stroke-opacity:1"
         id="path4212"
         sodipodi:type="arc"
         sodipodi:cx="1068.1178"
         sodipodi:cy="308.40747"
         sodipodi:rx="31.246111"
         sodipodi:ry="31.045185"
         sodipodi:start="0"
         sodipodi:end="6.2661858"
         sodipodi:open="true"
         d="m 1099.3639,308.40747 a 31.246111,31.045185 0 0 1 -31.1133,31.04491 31.246111,31.045185 0 0 1 -31.3778,-30.78104 31.246111,31.045185 0 0 1 30.8466,-31.30653 31.246111,31.045185 0 0 1 31.64,30.51493"
         inkscape:export-filename="/Users/santannajj/Desktop/a.png"
         inkscape:export-xdpi="90"
         inkscape:export-ydpi="90" />
      <path
         sodipodi:nodetypes="cc"
         inkscape:connector-curvature="0"
         id="path4214"
         d="m 1092.3367,287.19718 c 8.2329,-8.13964 22.152,-28.71696 25.5322,-36.70261"
         style="fill:none;fill-rule:evenodd;stroke:#000000;stroke-width:5.00000048;stroke-linecap:butt;stroke-linejoin:miter;stroke-miterlimit:4;stroke-dasharray:10.00000119, 5.0000006;stroke-dashoffset:0;stroke-opacity:1"
         inkscape:export-filename="/Users/santannajj/Desktop/a.png"
         inkscape:export-xdpi="90"
         inkscape:export-ydpi="90" />
    </g>
    <path
       inkscape:export-ydpi="90"
       inkscape:export-xdpi="90"
       inkscape:export-filename="/Users/santannajj/Desktop/a.png"
       inkscape:connector-curvature="0"
       id="path4216"
       d="m -91.09564,-91.128476 c -2.3268,-0.33021 -5.6505,-1.5775 -7.6297,-2.86324 -1.7398,-1.13023 -2.9039,-3.18609 -4.0329,-7.122514 -0.8587,-2.99426 -0.8044,-4.00238 0.2583,-4.78187 0.3824,-0.28056 0.6086,-0.31985 1.385,-0.24061 0.5104,0.0521 1.9881,0.20271 3.2838,0.33469 4.9139,0.50056 8.7495,0.62834 16.1572,0.53831 7.2279,-0.0879 8.7992,-0.16979 13.6393,-0.71117 1.3507,-0.15109 2.6147,-0.22838 2.8087,-0.17178 0.5415,0.15784 1.2161,0.90063 1.349,1.48498 0.1468,0.64614 -0.1092,2.05043 -0.7914,4.3397 -1.0927,3.667144 -2.258,5.546364 -4.144,6.682924 -2.4416,1.47116 -5.873,2.53988 -8.2455,2.56807 -1.7183,0.0203 -2.0226,-0.11045 -3.6864,-1.58519 -1.3231,-1.17274 -2.1827,-1.54144 -3.1559,-1.35374 -0.7761,0.14969 -1.2476,0.44566 -2.4378,1.53017 -0.5498,0.50087 -1.1922,1.00485 -1.4278,1.11997 -0.613,0.29951 -2.1143,0.4038 -3.3299,0.2313 z m 1.7729,-5.47765 c 0.7946,-0.47495 1.4253,-1.41893 1.5651,-2.34282 0.081,-0.53733 0.039,-0.68056 -0.3287,-1.107714 -0.5493,-0.63786 -1.5461,-0.96049 -3.6648,-1.18596 -2.2693,-0.24153 -4.2323,0.0411 -4.731,0.6814 -0.5846,0.750264 0.1363,2.611884 1.3247,3.421504 1.6397,1.11692 4.4318,1.37228 5.8347,0.53359 z m 15.9205,0.0378 c 1.7644,-0.79306 2.8405,-2.07779 2.8405,-3.39086 0,-0.502644 -0.072,-0.646044 -0.4292,-0.860904 -1.4164,-0.85086 -6.5756,-0.5427 -7.9093,0.47244 -1.2352,0.940094 -0.1904,3.365494 1.77,4.109004 0.6649,0.25215 2.867,0.0574 3.728,-0.32968 z m -14.6491,-12.248184 c -11.5179,-0.29321 -21.9245,-2.34047 -23.2741,-4.5787 -0.3061,-0.50762 -0.2603,-1.16189 0.1092,-1.56395 1.0592,-1.15196 4.5341,-2.36414 8.7161,-3.04062 0.8711,-0.14089 1.2931,-0.28417 1.3762,-0.46718 0.067,-0.14516 0.9712,-3.88352 2.0116,-8.30746 1.0403,-4.42392 2.0167,-8.35728 2.1698,-8.74079 0.3296,-0.8253 1.3429,-1.95807 2.0821,-2.32802 0.299,-0.14955 0.9283,-0.26476 1.4549,-0.26636 0.8208,-0.002 1.2289,0.13633 3.5336,1.20221 2.8643,1.32451 4.1073,1.66326 6.1034,1.66326 1.9444,0 3.185,-0.33291 5.9992,-1.60992 1.412,-0.64067 2.8265,-1.21348 3.1435,-1.27291 0.8031,-0.15055 1.8745,0.1609 2.65,0.7704 1.2748,1.00186 1.3572,1.2451 3.4951,10.33337 1.0728,4.56074 2.004,8.41106 2.069,8.55622 0.082,0.18365 0.5008,0.32505 1.3749,0.46479 5.4082,0.86454 9.0375,2.43666 9.0375,3.91496 0,2.05754 -6.1493,3.91454 -15.9191,4.80745 -3.373,0.30829 -10.3761,0.60527 -12.8495,0.5449 -1.0209,-0.0249 -2.4985,-0.0617 -3.2837,-0.0817 z"
       style="fill:#666666;fill-opacity:1" />
    <path
       style="fill:#666666;fill-opacity:1"
       d="m -147.49444,-4.7749658 c -1.2379,-0.0985 -2.01,-0.22409 -2.9983,-0.48784 -3.5673,-0.95203 -6.8254,-3.21063 -9.397,-6.5145002 -0.1737,-0.22294 -0.4059,-0.53293 -0.5163,-0.68886 l -0.2007,-0.28352 -0.065,0.0664 c -0.036,0.0365 -1.1976,1.28929 -2.5825,2.7840002 -1.3848,1.49468 -2.524,2.71944 -2.5314,2.72164 -0.01,0.003 -0.6088,-0.5478 -1.3361,-1.22224 l -1.3226,-1.22626 0.3571,-0.3806702 c 0.5302,-0.565 5.5018,-5.93394 5.543,-5.98597 0.028,-0.0367 0,-0.11911 -0.1553,-0.46253 -1.1922,-2.6115 -2.0127,-5.71777 -2.2737,-8.6077 l -0.036,-0.39491 -3.1212,0 -3.1212,0 0,-1.80961 0,-1.80962 3.0836,0 3.0836,0 1e-4,-0.10856 c 8e-4,-0.37007 0.107,-1.59127 0.2055,-2.36698 0.094,-0.7393 0.318,-2.06111 0.3913,-2.30907 0.012,-0.0389 0,-0.0507 -0.059,-0.0507 -0.041,0 -0.075,-0.0106 -0.075,-0.0234 0,-0.0471 0.258,-0.92862 0.3915,-1.33733 0.2127,-0.65105 0.8312,-2.35735 1.0758,-2.96777 0.71,-1.77148 1.6339,-3.48186 2.6765,-4.95511 0.1255,-0.17737 0.2283,-0.32961 0.2283,-0.33832 0,-0.009 -1.6286,-1.77236 -3.6192,-3.91923 -1.9905,-2.14687 -3.6182,-3.91643 -3.617,-3.93235 0,-0.0293 2.5861,-2.42781 2.6255,-2.43721 0.012,-0.003 1.5654,1.66222 3.4525,3.70006 1.887,2.03784 3.4636,3.73619 3.5033,3.77411 l 0.072,0.0689 0.3041,-0.27708 c 1.891,-1.7236 4.0055,-2.97767 6.2539,-3.70933 3.2034,-1.04236 6.6239,-0.98715 9.7936,0.15807 0.6795,0.24551 1.0154,0.38993 1.7446,0.75016 1.7659,0.87247 3.1531,1.84359 4.4771,3.13415 l 0.3946,0.3847 3.8471,-4.15355 c 2.1159,-2.28447 3.8567,-4.15133 3.8684,-4.1486 0.034,0.008 2.6279,2.42109 2.6279,2.44482 0,0.0119 -1.8096,1.97329 -4.0215,4.3589 l -4.0215,4.33749 0.3111,0.48321 c 1.4872,2.30967 2.7213,5.09897 3.4744,7.85331 0.077,0.27941 0.1483,0.5628 0.1596,0.62974 0.02,0.1151 0.016,0.12171 -0.049,0.12171 l -0.069,0 0.079,0.38977 c 0.2437,1.18842 0.4447,2.7756 0.512,4.04017 l 0.021,0.39087 3.8001,0.007 3.8003,0.007 0,1.8095 0,1.8095 -3.8346,0 -3.8346,0 -0.015,0.12307 c -0.01,0.0676 -0.048,0.41621 -0.089,0.77451 -0.2886,2.55003 -0.902,4.95033 -1.8596,7.2769 l -0.2483,0.60305 0.1153,0.12079 c 0.063,0.0665 1.5263,1.64521 3.2508,3.50838 1.7245,1.86318 3.2125,3.4669402 3.3068,3.5639202 l 0.1715,0.17633 -1.1528,1.06794 c -0.6339,0.58739 -1.2314,1.14265 -1.3276,1.23394 l -0.1748,0.16597 -2.9918,-3.2271102 c -1.6455,-1.7749 -3.0013,-3.22709 -3.0129,-3.22709 -0.012,0 -0.11,0.13354 -0.2186,0.29678 -1.0985,1.65054 -2.5346,3.2447602 -4.024,4.4667702 -1.0762,0.88291 -2.1186,1.55781 -3.3297,2.15571 -1.8552,0.91581 -3.644,1.41827 -5.6199,1.57852 -0.4732,0.0383 -1.7231,0.0531 -2.0818,0.0246 z m -0.9121,-16.6439502 0,-12.49355 -6.3495,0 -6.3496,0 -0.1208,0.49945 c -0.2839,1.17432 -0.4684,2.34174 -0.5869,3.71332 -0.051,0.59196 -0.068,2.47513 -0.029,3.13248 0.1919,3.21797 0.9497,6.13355 2.291,8.81434 1.5164,3.03097 3.7355,5.51785 6.3078,7.06902 0.8275,0.49895 1.9685,1.0216902 2.8256,1.2944402 0.5665,0.18029 1.7128,0.45008 1.9616,0.46169 0.048,0.003 0.051,-0.61096 0.051,-12.4911902 z m 5.0751,12.1877802 c 1.2195,-0.31363 2.6629,-0.9776702 3.8862,-1.7877702 0.8728,-0.5781 1.5257,-1.12083 2.3898,-1.98658 1.6583,-1.66161 2.902,-3.52659 3.9208,-5.87928 1.8875,-4.35851 2.3151,-9.71862 1.1555,-14.48482 l -0.1321,-0.54288 -5.7444,0 -5.7446,0 0,12.38083 c 0,11.10878 0.01,12.3790902 0.045,12.3638102 0.025,-0.009 0.1254,-0.0378 0.2243,-0.0633 z"
       id="path4218"
       inkscape:connector-curvature="0"
       inkscape:export-filename="/Users/santannajj/Desktop/a.png"
       inkscape:export-xdpi="90"
       inkscape:export-ydpi="90" />
    <path
       inkscape:export-ydpi="90"
       inkscape:export-xdpi="90"
       inkscape:export-filename="/Users/santannajj/Desktop/a.png"
       style="fill:#666666;fill-opacity:1"
       d="m -295.24809,18.687854 c 0.66,-2.59316 3.6496,-6.75836 5.9377,-8.27259 1.3814,-0.9141598 2.2628,-1.2281698 3.9851,-1.4196298 1.2163,-0.13526 6.584,-0.85857 11.9282,-1.60747 9.1596,-1.28355 9.8517,-1.33068 12.0715,-0.82215 2.1176,0.48511 4.1006,1.73936 19.6865,12.4518298 11.3441,7.79703 18.1648,12.7346 19.7434,14.29239 1.3264,1.30903 3.4058,3.90543 4.6208,5.76979 l 2.20915,3.38978 9.3158,-0.25578 9.3159,-0.25573 9.82,6.79943 9.82,6.79939 -1.437,1.93769 c -0.7904,1.0657 -1.7878,2.09044 -2.2166,2.27722 -0.4287,0.18682 -4.617,1.86994 -9.3071,3.74037 -4.6902,1.87041 -8.5879,3.48788 -8.6615,3.59439 -0.074,0.10655 0.095,0.5721 0.3747,1.03454 0.4716,0.77993 0.125,1.39504 -4.7834,8.48754 -4.4393,6.4145 -5.4242,7.6298 -6.1125,7.54211 -0.4513,-0.0575 -4.2966,-0.89686 -8.54505,-1.86518 -4.2484,-0.96837 -7.8604,-1.73582 -8.0266,-1.70547 -0.1662,0.0303 0.2461,0.77703 0.9163,1.65931 l 1.2185,1.60411 6.3815,1.36811 c 3.50985,0.75249 6.43055,1.40051 6.49055,1.44014 0.06,0.0396 0.015,4.11341 -0.1005,9.05287 -0.208,8.909146 -0.2186,8.994176 -1.331,10.645186 -0.6167,0.91537 -1.2942,1.69586 -1.5054,1.73443 -0.2112,0.0386 -4.70625,-2.91969 -9.98885,-6.57398 l -9.6047,-6.644056 -3.0236,-8.59021 c -1.663,-4.7246 -3.1792,-8.69445 -3.3694,-8.82188 -0.1903,-0.12746 -1.9477,-0.60233 -3.9056,-1.05531 -6.3822,-1.47664 -8.396,-2.62962 -26.811,-15.35105 -15.5391,-10.7347 -17.3197,-12.07016 -18.7048,-14.02889 -1.5121,-2.13815 -1.5582,-2.28256 -3.7474,-11.72544 -3.1202,-13.45837 -3.251,-14.27816 -2.6536,-16.62581 z m 91.30485,64.61755 1.1457,-1.61611 5.7327,3.76058 c 3.153,2.06835 7.0301,4.60996 8.6157,5.64798 1.5856,1.03802 2.9029,1.99658 2.9273,2.13002 0.024,0.13352 -0.3155,0.5289 -0.7552,0.87873 -0.7559,0.60133 -1.0991,0.47788 -6.2945,-2.26556 -3.0222,-1.59591 -7.0543,-3.69248 -8.9602,-4.65904 -1.906,-0.96655 -3.486,-1.87058 -3.5113,-2.00894 -0.025,-0.13833 0.4697,-0.9788 1.0998,-1.86766 z m 3.4107,-4.93546 c 0.5432,-0.76025 1.1583,-1.41342 1.3668,-1.45149 0.2085,-0.0381 1.0462,0.44355 1.8616,1.07027 0.8154,0.62672 3.5351,2.62948 6.0438,4.45055 11.0464,8.01879 21.0755,15.28997 21.5723,15.64006 0.7481,0.52721 0.7588,0.92025 0.05,1.84352 -0.5996,0.781106 -0.6782,0.751876 -4.1357,-1.54027 -1.9385,-1.28504 -7.3677,-4.84809 -12.0647,-7.91782 -12.9678,-8.47503 -15.5949,-10.23611 -15.6402,-10.48459 -0.023,-0.12541 0.4028,-0.84998 0.946,-1.61023 z m 3.7067,-5.34537 c 0.8274,-1.15441 1.2414,-1.47338 1.5691,-1.20892 0.2449,0.19758 2.7714,2.44944 5.6144,5.00414 2.843,2.5547 6.1353,5.49542 7.3162,6.53491 l 2.1472,1.89 -0.6288,0.89317 -0.6288,0.89321 -4.8402,-3.46972 c -7.3299,-5.25454 -11.5761,-8.43804 -11.627,-8.71726 -0.025,-0.13827 0.4598,-0.95705 1.0779,-1.81953 z"
       id="path4220"
       inkscape:connector-curvature="0"
       sodipodi:nodetypes="sssssssscccccscsscscssccscscsscscsssssscscscssssssssscsssssssscccsss" />
    <g
       style="font-style:normal;font-weight:normal;font-size:187.5px;line-height:125%;font-family:sans-serif;letter-spacing:0px;word-spacing:0px;fill:#808080;fill-opacity:1;stroke:none;stroke-width:1px;stroke-linecap:butt;stroke-linejoin:miter;stroke-opacity:1"
       id="text4224">
      <path
         d="m -266.42789,-184.22066 51.7273,0 q 19.68384,0.1831 29.57153,9.88769 9.97925,9.79615 9.97925,25.90943 0.1831,8.23974 -3.93677,15.74707 -2.10571,3.57055 -6.04248,6.7749 -3.93677,3.38745 -9.70459,6.13403 l 0,0.36621 q 10.89478,2.83814 16.47949,11.4441 5.21851,8.880612 5.21851,19.317624 -0.18311,17.303466 -10.80322,27.374267 -10.52857,10.528565 -26.27564,10.528565 l -56.21338,0 0,-133.483886 z m 20.23316,74.24927 0,40.100094 31.12793,0 q 11.26098,-0.183105 16.47949,-6.134033 5.21851,-5.859375 5.21851,-13.916016 0,-8.239746 -5.21851,-14.099125 -5.21851,-5.76782 -16.47949,-5.95092 l -31.12793,0 z m 0,-56.21338 0,38.17749 29.20532,0 q 11.07788,0 16.29639,-5.76782 5.31005,-5.31006 5.31005,-13.3667 0,-8.05664 -5.31005,-13.64136 -5.21851,-5.21851 -16.29639,-5.40161 l -29.20532,0 z"
         style="font-style:normal;font-variant:normal;font-weight:bold;font-stretch:normal;font-family:'DIN Alternate';-inkscape-font-specification:'DIN Alternate Bold';fill:#808080;fill-opacity:1"
         id="path4253" />
      <flowRoot
         xml:space="preserve"
         id="flowRoot4274"
         style="fill:black;stroke:none;stroke-opacity:1;stroke-width:1px;stroke-linejoin:miter;stroke-linecap:butt;fill-opacity:1;font-family:sans-serif;font-style:normal;font-weight:normal;font-size:15px;line-height:125%;letter-spacing:0px;word-spacing:0px"><flowRegion
           id="flowRegion4276"><rect
             id="rect4278"
             width="1833.2749"
             height="1444.0959"
             x="815.42242"
             y="-737.25842" /></flowRegion><flowPara
           id="flowPara4280" /></flowRoot>    </g>
    <g
       style="font-style:normal;font-weight:normal;font-size:187.5px;line-height:125%;font-family:sans-serif;letter-spacing:0px;word-spacing:0px;fill:#808080;fill-opacity:1;stroke:none;stroke-width:1px;stroke-linecap:butt;stroke-linejoin:miter;stroke-opacity:1"
       id="text4228">
      <path
         d="m -359.24289,-184.22066 46.6919,0 q 27.0996,0.1831 40.64941,22.52197 4.85229,7.50733 6.13403,15.74707 1.00708,8.23975 1.00708,28.4729 0,21.514895 -1.55639,30.029299 -0.73243,4.302979 -2.19727,7.69043 -1.5564,3.295898 -3.75366,6.866455 -5.85938,9.429931 -16.29639,15.563965 -10.34546,6.591797 -25.36011,6.591797 l -45.3186,0 0,-133.483886 z m 20.23315,114.349364 24.16993,0 q 17.02881,0 24.71924,-11.627197 3.38745,-4.302979 4.30297,-10.894776 0.82398,-6.500244 0.82398,-24.353031 0,-17.39502 -0.82398,-24.90234 -1.09863,-7.50732 -5.2185,-12.17651 -8.42285,-11.6272 -23.80371,-11.26099 l -24.16993,0 0,95.214844 z"
         style="font-style:normal;font-variant:normal;font-weight:bold;font-stretch:normal;font-family:'DIN Alternate';-inkscape-font-specification:'DIN Alternate Bold';fill:#808080;fill-opacity:1"
         id="path4250" />
    </g>
    <g
       transform="matrix(0.83467753,0.56178068,-0.58105851,0.80698537,0,0)"
       style="font-style:normal;font-weight:normal;font-size:37.75894928px;line-height:125%;font-family:sans-serif;letter-spacing:0px;word-spacing:0px;fill:#ffffff;fill-opacity:1;stroke:none;stroke-width:1px;stroke-linecap:butt;stroke-linejoin:miter;stroke-opacity:1"
       id="text4232">
      <path
         d="m -214.86961,163.31852 9.20713,0 q 5.34374,0.0361 8.01561,4.44108 0.95682,1.48037 1.20956,3.10515 0.19859,1.62479 0.19859,5.61454 0,4.2425 -0.30691,5.92144 -0.14442,0.8485 -0.43327,1.51647 -0.30691,0.64992 -0.74018,1.35399 -1.15541,1.85948 -3.21347,3.06904 -2.04001,1.29983 -5.00073,1.29983 l -8.93633,0 0,-26.32154 z m 3.98976,22.54843 4.76604,0 q 3.35789,0 4.87436,-2.29276 0.66796,-0.8485 0.8485,-2.14833 0.16247,-1.28177 0.16247,-4.80214 0,-3.43011 -0.16247,-4.91047 -0.21664,-1.48036 -1.02904,-2.40107 -1.66089,-2.29276 -4.69382,-2.22054 l -4.76604,0 0,18.77531 z"
         style="font-style:normal;font-variant:normal;font-weight:bold;font-stretch:normal;font-size:36.97291565px;font-family:'DIN Alternate';-inkscape-font-specification:'DIN Alternate Bold';fill:#ffffff"
         id="path4163" />
      <path
         d="m -191.61711,163.31852 9.20713,0 q 5.34374,0.0361 8.01561,4.44108 0.95682,1.48037 1.20956,3.10515 0.19859,1.62479 0.19859,5.61454 0,4.2425 -0.30691,5.92144 -0.14442,0.8485 -0.43327,1.51647 -0.30691,0.64992 -0.74018,1.35399 -1.15541,1.85948 -3.21347,3.06904 -2.04001,1.29983 -5.00073,1.29983 l -8.93633,0 0,-26.32154 z m 3.98976,22.54843 4.76604,0 q 3.35789,0 4.87436,-2.29276 0.66796,-0.8485 0.84849,-2.14833 0.16248,-1.28177 0.16248,-4.80214 0,-3.43011 -0.16248,-4.91047 -0.21663,-1.48036 -1.02903,-2.40107 -1.66089,-2.29276 -4.69382,-2.22054 l -4.76604,0 0,18.77531 z"
         style="font-style:normal;font-variant:normal;font-weight:bold;font-stretch:normal;font-size:36.97291565px;font-family:'DIN Alternate';-inkscape-font-specification:'DIN Alternate Bold';fill:#ffffff"
         id="path4165" />
      <path
         d="m -169.62833,180.25241 q 0,-2.96073 0.48743,-4.54941 0.50549,-1.55257 1.55258,-2.61771 0.77629,-0.93876 2.16638,-1.67894 1.37204,-0.70408 3.52037,-0.74018 2.22054,0.0361 3.59258,0.74018 1.35399,0.74018 2.09417,1.67894 1.1193,1.06514 1.58868,2.61771 0.45133,1.58868 0.45133,4.54941 0,2.96072 -0.45133,4.51329 -0.46938,1.55258 -1.58868,2.68993 -0.36106,0.41522 -0.8846,0.81239 -0.46939,0.45133 -1.20957,0.77629 -1.37204,0.77628 -3.59258,0.81239 -2.14833,-0.0361 -3.52037,-0.81239 -1.39009,-0.70408 -2.16638,-1.58868 -1.04709,-1.13735 -1.55258,-2.68993 -0.48743,-1.55257 -0.48743,-4.51329 z m 11.68041,0.0361 q 0,-2.0039 -0.18053,-2.92461 -0.18054,-0.88461 -0.74018,-1.55258 -0.41523,-0.63186 -1.22762,-0.99292 -0.77629,-0.37912 -1.80532,-0.37912 -0.95682,0 -1.76921,0.37912 -0.77629,0.36106 -1.26372,0.99292 -0.48744,0.66797 -0.70408,1.55258 -0.21664,0.92071 -0.21664,2.88851 0,1.94974 0.21664,2.8524 0.21664,0.92071 0.70408,1.62479 0.48743,0.54159 1.26372,0.95681 0.81239,0.39717 1.76921,0.39717 1.02903,0 1.80532,-0.39717 0.81239,-0.41522 1.22762,-0.95681 0.55964,-0.70408 0.74018,-1.62479 0.18053,-0.90266 0.18053,-2.8163 z"
         style="font-style:normal;font-variant:normal;font-weight:bold;font-stretch:normal;font-size:36.97291565px;font-family:'DIN Alternate';-inkscape-font-specification:'DIN Alternate Bold';fill:#ffffff"
         id="path4167" />
      <path
         d="m -149.55319,183.24923 q 3.14125,2.58161 7.47401,2.61772 5.12711,-0.0722 5.19932,-3.6648 0.0361,-2.94267 -3.4301,-3.53842 -1.58868,-0.21664 -3.48427,-0.48744 -3.394,-0.55965 -5.16321,-2.50939 -1.82337,-2.00391 -1.82337,-4.87436 0,-3.44816 2.29275,-5.56038 2.22055,-2.09417 6.30056,-2.13028 4.91047,0.10832 8.53916,2.72603 l -2.22054,3.28568 0,0 q -2.96072,-1.94974 -6.5172,-2.02195 -1.84142,0 -3.06904,0.92071 -1.28178,0.95682 -1.31788,2.8524 0,1.13735 0.8846,2.05806 0.88461,0.93877 2.83435,1.29983 1.08319,0.18054 2.96072,0.41523 3.70091,0.50549 5.47012,2.65381 1.75116,2.11223 1.75116,4.91047 -0.19859,7.54623 -9.24323,7.65455 -5.84923,0 -10.05562,-3.61064 l 2.61771,-2.99683 0,0 z"
         style="font-style:normal;font-variant:normal;font-weight:bold;font-stretch:normal;font-size:36.97291565px;font-family:'DIN Alternate';-inkscape-font-specification:'DIN Alternate Bold';fill:#ffffff"
         id="path4169" />
    </g>
  </g>
</svg>
